<svg width="1427" height="1103" viewBox="0 0 1427 1103" fill="none" xmlns="http://www.w3.org/2000/svg">
<g clip-path="url(#clip0_918_426)">
<path d="M875.783 193.97V208.978L875.311 214.125L721.443 214.872L721.915 211.414L714.09 213.811L713.618 214.911L674.925 215.107L673.51 164.543L660.297 166.232L661.28 215.186L509.615 215.893H506.115V208.978V187.173L525.934 121.325L594.472 64.2376L750.777 54.6511L838.505 92.4865L875.783 193.97Z" fill="#FFFFFB"/>
<path d="M875.783 208.978V287.085H506.115V215.933L509.615 215.893L661.28 215.186L660.297 166.232L673.51 164.542L674.925 215.107L713.618 214.911L714.09 213.811L721.915 211.414L721.443 214.872L875.311 214.125L875.783 208.978Z" fill="#FFFFFB"/>
<path d="M528.371 126.432C528.371 125.096 477.882 126.432 477.882 126.432C477.882 126.432 441.823 142.187 441.823 144.466V167.882L468.877 184.658L513.94 189.53L528.371 126.471V126.432Z" fill="#FFFFFB"/>
<path d="M852.347 132.443H931.109L954.545 143.248L958.123 167.843L925.997 190.395H869.177L852.347 132.443Z" fill="#FFFFFB"/>
<path d="M516.221 153.659L495.616 115.628V98.8119L515.435 107.22L521.451 128.239V68.7951L531.675 60.3872L537.101 90.9934V122.15L536.472 139.947L548.622 157.038L516.221 153.659Z" fill="#F4C916"/>
<path d="M843.932 156.174L849.358 134.526L846.645 129.614L866.188 108.123H884.198V135.743L864.065 164.582L843.932 156.174Z" fill="#F4C916"/>
<path d="M672.015 59.4836L665.999 43.5322L669.026 32.4134L660.297 26.4415L673.509 24.6342L680.115 34.535L694.546 6.32553L706.894 0L718.887 3.30028L703.866 16.2264L703.276 38.4247L693.367 48.9541L699.068 57.8334L672.015 59.4836Z" fill="#F4C916"/>
<path d="M220.007 517.24V510.718L216.468 522.583L147.851 626.424L140.655 699.698L186.308 753.721L181.511 786.174L116 851.04L42.0747 842.632L0 776.548L13.2122 747.71L7.19595 499.089L97.3616 369.356L220.007 205.992L230.978 474.022L232.001 499.089L220.007 517.24Z" fill="#FFFFFB"/>
<path d="M1200.98 205.992V762.443H220.007V205.992L393.103 216.483L498.761 215.972L506.115 215.933L509.614 215.893L661.28 215.186L674.925 215.107L713.618 214.911L721.443 214.872L875.31 214.125H875.782L889.899 214.047L938.619 213.811L1058.51 212.004L1101.81 210.196L1200.98 205.992Z" fill="#FFFFFB"/>
<path d="M586.372 391.594L522.119 351.323L495.616 356.155L498.762 215.972L506.115 215.933L509.615 215.893L508.592 287.085L508.514 291.878L586.372 391.594Z" fill="#03031F"/>
<path d="M889.899 214.047L879.4 374.739L872.204 345.311L798.868 382.557L868.586 287.085L875.31 214.125L875.782 208.979V214.125L889.899 214.047Z" fill="#03031F"/>
<path d="M495.616 762.443V370.574L516.614 360.005V762.443H495.616Z" fill="#03031F"/>
<path d="M855.649 762.443L869.176 366.959L875.782 382.596V762.443H855.649Z" fill="#03031F"/>
<path d="M279.501 508.4L220.007 556.136V510.718L230.978 474.022L232 470.565V528.516L279.501 508.4Z" fill="#03031F"/>
<path d="M116 539.949L147.851 626.424L216.468 522.583L171.287 574.484L116 539.949Z" fill="#03031F"/>
<path d="M1262.91 507.771L1228.62 532.72L1202.2 514.333L1238.84 467.264L1228.62 505.689L1262.91 507.771Z" fill="#03031F"/>
<path d="M1262.91 598.49L1239.47 580.181L1242.15 616.484L1238.1 621.199L1229.01 536.334L1264.09 581.674L1262.91 598.49Z" fill="#03031F"/>
<path d="M1397.04 690.387L1325.43 684.376C1325.43 684.376 1371.87 684.061 1372.3 684.376C1372.74 684.651 1393.34 671.921 1393.34 671.921V676.871L1396.96 690.033L1397.04 690.387Z" fill="#03031F"/>
<path d="M1200.98 205.992L1204.59 189.491H1101.81V642.651L1136.06 635.421L1146 238.131L1200.98 205.992Z" fill="#F4C916"/>
<path d="M1354.25 932.721H1076.56V621.199H1238.1L1347.69 890.368L1354.25 932.721Z" fill="#F4C916"/>
<path d="M1427 799.375L1352.48 890.839L1347.69 890.368L1299.56 885.85L1208.21 782.559L1247.89 712.899L1238.1 621.199L1229.01 536.335L1228.62 532.72L1202.2 514.333L1200.98 513.508V205.992L1393.34 383.775V676.871L1396.96 690.033L1397.04 690.387L1427 799.375Z" fill="#FFFFFB"/>
<path d="M654.556 762.443H557.194V1019.2H654.556V762.443Z" fill="#FFFFFB"/>
<path d="M817.782 762.443H720.421V1019.2H817.782V762.443Z" fill="#FFFFFB"/>
<path d="M654.596 1019.2V1103H601.078V1093.69L596.281 1068.62L563.801 1087.68V1103H458.024L461.642 1087.68L557.195 1019.2H654.596Z" fill="#FFFFFB"/>
<path d="M809.053 1103V1087.25L776.612 1068.19L771.815 1093.26V1102.57L777.753 1103H720.421V1019.2H817.782L913.375 1087.68L916.953 1103H809.053Z" fill="#FFFFFB"/>
<path d="M621.564 167.843V184.855L639.181 206.503L656.836 184.855V168.432L621.564 167.843Z" fill="#F4C916"/>
<path d="M750.03 149.495V168.982L767.057 186.23L784.083 168.982V152.716L750.03 149.495Z" fill="#F4C916"/>
<path d="M721.915 211.414L721.443 214.872L719.791 226.423L696.67 245.635H685.542L661.437 223.122L661.28 215.186L660.297 166.232L673.509 164.542L674.925 215.107L675.003 218.604L691.086 233.023L708.702 226.423L713.618 214.911L714.09 213.811L721.915 211.414Z" fill="#03031F"/>
<path d="M586.371 167.843L596.595 154.052L811.766 152.245L810.586 167.843H586.371Z" fill="#03031F"/>
</g>
<defs>
<clipPath id="clip0_918_426">
<rect width="1427" height="1103" fill="white"/>
</clipPath>
</defs>
</svg>
