<?xml version="1.0" encoding="UTF-8"?>
<svg id="Calque_2" data-name="Calque 2" xmlns="http://www.w3.org/2000/svg" xmlns:xlink="http://www.w3.org/1999/xlink" viewBox="0 0 82.29 99.86">
  <defs>
    <style>
      .cls-1 {
        fill: #6d6e97;
      }

      .cls-2 {
        fill: none;
        stroke: #c9c9da;
      }

      .cls-2, .cls-3 {
        stroke-miterlimit: 10;
      }

      .cls-4, .cls-3 {
        fill: #fff;
      }

      .cls-3 {
        filter: url(#drop-shadow-1);
        stroke: #81829d;
      }

      .cls-5 {
        fill: #c3c3d3;
      }
    </style>
    <filter id="drop-shadow-1" x="13.05" y="0" width="55" height="55" filterUnits="userSpaceOnUse">
      <feOffset dx="0" dy="0"/>
      <feGaussianBlur result="blur" stdDeviation="3"/>
      <feFlood flood-color="#000" flood-opacity=".25"/>
      <feComposite in2="blur" operator="in"/>
      <feComposite in="SourceGraphic"/>
    </filter>
  </defs>
  <g id="Bouton">
    <rect class="cls-1" y="62.66" width="82.29" height="37.21" rx="1.82" ry="1.82"/>
    <ellipse class="cls-5" cx="40.91" cy="27.32" rx="25.11" ry="25.21"/>
    <ellipse class="cls-3" cx="40.91" cy="27.32" rx="17.47" ry="17.55"/>
    <g>
      <path class="cls-4" d="M12.91,79.45h-1.5v-6.95h1.5l3.39,5.13h-.47v-5.13h1.5v6.95h-1.5l-3.39-5.12h.47v5.12Z"/>
      <path class="cls-4" d="M23.16,79.45h-4.4v-6.95h4.4v1.41h-3.3l.42-.39v1.76h2.55v1.33h-2.55v1.83l-.42-.39h3.3v1.41Z"/>
      <path class="cls-4" d="M26.5,74.51c0-.42.11-.79.33-1.11.22-.32.52-.58.9-.76.38-.19.82-.28,1.31-.28s.93.09,1.29.26c.36.18.64.42.84.74.2.32.29.7.29,1.14h-1.51c0-.24-.08-.44-.25-.58-.17-.14-.4-.21-.68-.21-.31,0-.55.07-.73.2-.18.13-.28.31-.28.54,0,.21.06.38.17.49s.29.19.53.24l1.04.22c.62.13,1.08.34,1.38.65.3.31.45.74.45,1.29,0,.44-.11.83-.33,1.17-.22.33-.53.59-.92.77-.4.18-.86.27-1.39.27s-.96-.09-1.34-.26c-.38-.18-.68-.42-.89-.75-.21-.32-.31-.7-.31-1.13h1.51c0,.25.09.44.27.58.18.14.44.21.78.21s.61-.06.81-.19c.2-.13.3-.3.3-.52,0-.19-.05-.34-.15-.45s-.26-.18-.49-.23l-1.06-.22c-.62-.13-1.08-.36-1.4-.71-.32-.35-.47-.81-.47-1.38Z"/>
      <path class="cls-4" d="M32.54,76.83v-4.34h1.52v4.24c0,.44.12.77.35,1.01.23.23.56.35.98.35s.76-.12,1-.36c.23-.24.35-.57.35-1v-4.24h1.52v4.34c0,.55-.12,1.03-.35,1.44-.23.41-.57.72-1,.95-.43.23-.94.34-1.52.34s-1.07-.11-1.5-.33c-.43-.22-.76-.54-.99-.95-.23-.41-.35-.89-.35-1.44Z"/>
      <path class="cls-4" d="M41.15,79.45h-1.51v-6.95h2.67c.84,0,1.49.2,1.95.59.46.39.69.95.69,1.67,0,.45-.1.84-.29,1.16-.19.32-.48.58-.87.78l1.22,2.76h-1.66l-1.04-2.43h-1.17v2.43ZM41.15,73.85v1.83h1.15c.33,0,.59-.08.77-.24.18-.16.28-.39.28-.69s-.09-.52-.27-.67-.44-.23-.77-.23h-1.16Z"/>
      <path class="cls-4" d="M45.45,73.9v-1.41h5.44v1.41h-5.44ZM48.93,73.23v6.22h-1.52v-6.22h1.52Z"/>
      <path class="cls-4" d="M57.92,75.96c0,.71-.14,1.33-.43,1.87-.29.54-.69.96-1.2,1.27s-1.1.46-1.78.46-1.25-.15-1.76-.46c-.51-.3-.9-.73-1.19-1.26-.28-.54-.43-1.16-.43-1.87s.14-1.33.43-1.87c.29-.54.68-.96,1.19-1.27.51-.3,1.1-.46,1.76-.46s1.26.15,1.77.46c.51.3.91.73,1.19,1.26s.43,1.16.43,1.87ZM56.32,75.96c0-.44-.07-.82-.21-1.14-.14-.32-.35-.56-.61-.73s-.58-.25-.96-.25-.7.08-.96.25c-.27.17-.47.41-.62.73s-.21.7-.21,1.14.07.83.21,1.15c.14.32.35.56.62.73.27.17.59.25.96.25s.69-.09.96-.26c.26-.17.47-.42.61-.74.14-.32.21-.7.21-1.14Z"/>
      <path class="cls-4" d="M58.93,76.83v-4.34h1.52v4.24c0,.44.12.77.35,1.01.23.23.56.35.98.35s.76-.12,1-.36c.23-.24.35-.57.35-1v-4.24h1.52v4.34c0,.55-.12,1.03-.35,1.44-.23.41-.57.72-1,.95-.43.23-.94.34-1.52.34s-1.07-.11-1.5-.33c-.43-.22-.76-.54-.99-.95-.23-.41-.35-.89-.35-1.44Z"/>
      <path class="cls-4" d="M65.5,73.9v-1.41h5.44v1.41h-5.44ZM68.98,73.23v6.22h-1.52v-6.22h1.52Z"/>
      <path class="cls-4" d="M12.04,83.77v6.95h-1.51v-6.95h1.51ZM13.33,88.41h-1.67v-1.35h1.33c.37,0,.64-.08.82-.24.18-.16.27-.4.27-.73s-.09-.57-.27-.73c-.18-.16-.46-.24-.82-.24h-1.33v-1.35h1.67c.47,0,.89.1,1.24.29.35.19.63.46.82.81s.29.75.29,1.22-.1.87-.29,1.22-.47.62-.82.81c-.35.19-.77.29-1.24.29Z"/>
      <path class="cls-4" d="M17.17,90.72h-1.58l2.47-6.95h1.48l2.46,6.95h-1.61l-.49-1.47h-2.24l-.5,1.47ZM18.6,86.49l-.5,1.48h1.37l-.5-1.48c-.04-.12-.08-.24-.11-.37-.04-.12-.06-.23-.08-.31-.01.08-.04.18-.07.31-.04.12-.07.25-.12.37Z"/>
      <path class="cls-4" d="M22.42,85.79c0-.42.11-.79.33-1.11.22-.32.52-.58.9-.76.38-.19.82-.28,1.31-.28s.93.09,1.29.26c.36.18.64.42.84.74.2.32.29.7.29,1.14h-1.51c0-.24-.08-.44-.25-.58-.17-.14-.4-.21-.68-.21-.31,0-.55.07-.73.2-.18.13-.28.31-.28.54,0,.21.06.38.17.49s.29.19.53.24l1.04.22c.62.13,1.08.34,1.38.65.3.31.45.74.45,1.29,0,.44-.11.83-.33,1.17-.22.33-.53.59-.92.77-.4.18-.86.27-1.39.27s-.96-.09-1.34-.26c-.38-.18-.68-.42-.89-.75-.21-.32-.31-.7-.31-1.13h1.51c0,.25.09.44.27.58.18.14.44.21.78.21s.61-.06.81-.19c.2-.13.3-.3.3-.52,0-.19-.05-.34-.15-.45s-.26-.18-.49-.23l-1.06-.22c-.62-.13-1.08-.36-1.4-.71-.32-.35-.47-.81-.47-1.38Z"/>
      <path class="cls-4" d="M32.49,83.77v6.95h-1.51v-6.95h1.51ZM33.78,88.41h-1.67v-1.35h1.33c.37,0,.64-.08.82-.24.18-.16.27-.4.27-.73s-.09-.57-.27-.73c-.18-.16-.46-.24-.82-.24h-1.33v-1.35h1.67c.47,0,.89.1,1.24.29.35.19.63.46.82.81s.29.75.29,1.22-.1.87-.29,1.22-.47.62-.82.81c-.35.19-.77.29-1.24.29Z"/>
      <path class="cls-4" d="M38.61,90.72h-1.51v-6.95h2.67c.84,0,1.49.2,1.95.59.46.39.69.95.69,1.67,0,.45-.1.84-.29,1.16-.19.32-.48.58-.87.78l1.22,2.76h-1.66l-1.04-2.43h-1.17v2.43ZM38.61,85.12v1.83h1.15c.33,0,.59-.08.77-.24.18-.16.28-.39.28-.69s-.09-.52-.27-.67-.44-.23-.77-.23h-1.16Z"/>
      <path class="cls-4" d="M47.93,90.72h-4.4v-6.95h4.4v1.41h-3.3l.42-.39v1.76h2.55v1.33h-2.55v1.83l-.42-.39h3.3v1.41Z"/>
      <path class="cls-4" d="M48.79,85.79c0-.42.11-.79.33-1.11.22-.32.52-.58.9-.76.38-.19.82-.28,1.31-.28s.93.09,1.29.26c.36.18.64.42.84.74.2.32.29.7.29,1.14h-1.51c0-.24-.08-.44-.25-.58-.17-.14-.4-.21-.68-.21-.31,0-.55.07-.73.2-.18.13-.28.31-.28.54,0,.21.06.38.17.49s.29.19.53.24l1.04.22c.62.13,1.08.34,1.38.65.3.31.45.74.45,1.29,0,.44-.11.83-.33,1.17-.22.33-.53.59-.92.77-.4.18-.86.27-1.39.27s-.96-.09-1.34-.26c-.38-.18-.68-.42-.89-.75-.21-.32-.31-.7-.31-1.13h1.51c0,.25.09.44.27.58.18.14.44.21.78.21s.61-.06.81-.19c.2-.13.3-.3.3-.52,0-.19-.05-.34-.15-.45s-.26-.18-.49-.23l-1.06-.22c-.62-.13-1.08-.36-1.4-.71-.32-.35-.47-.81-.47-1.38Z"/>
      <path class="cls-4" d="M54.58,85.79c0-.42.11-.79.33-1.11.22-.32.52-.58.9-.76.38-.19.82-.28,1.31-.28s.93.09,1.29.26c.36.18.64.42.84.74.2.32.29.7.29,1.14h-1.51c0-.24-.08-.44-.25-.58-.17-.14-.4-.21-.68-.21-.31,0-.55.07-.73.2-.18.13-.28.31-.28.54,0,.21.06.38.17.49s.29.19.53.24l1.04.22c.62.13,1.08.34,1.38.65.3.31.45.74.45,1.29,0,.44-.11.83-.33,1.17-.22.33-.53.59-.92.77-.4.18-.86.27-1.39.27s-.96-.09-1.34-.26c-.38-.18-.68-.42-.89-.75-.21-.32-.31-.7-.31-1.13h1.51c0,.25.09.44.27.58.18.14.44.21.78.21s.61-.06.81-.19c.2-.13.3-.3.3-.52,0-.19-.05-.34-.15-.45s-.26-.18-.49-.23l-1.06-.22c-.62-.13-1.08-.36-1.4-.71-.32-.35-.47-.81-.47-1.38Z"/>
      <path class="cls-4" d="M65.06,90.72h-4.4v-6.95h4.4v1.41h-3.3l.42-.39v1.76h2.55v1.33h-2.55v1.83l-.42-.39h3.3v1.41Z"/>
      <path class="cls-4" d="M67.82,90.72h-1.51v-6.95h2.67c.84,0,1.49.2,1.95.59.46.39.69.95.69,1.67,0,.45-.1.84-.29,1.16-.19.32-.48.58-.87.78l1.22,2.76h-1.66l-1.04-2.43h-1.17v2.43ZM67.82,85.12v1.83h1.15c.33,0,.59-.08.77-.24.18-.16.28-.39.28-.69s-.09-.52-.27-.67-.44-.23-.77-.23h-1.16Z"/>
    </g>
    <polygon class="cls-2" points="4.2 64.51 2.59 64.51 1.79 65.91 2.59 67.3 4.2 67.3 5 65.91 4.2 64.51"/>
    <polygon class="cls-2" points="79.69 64.53 78.09 64.53 77.29 65.93 78.09 67.32 79.69 67.32 80.5 65.93 79.69 64.53"/>
    <polygon class="cls-2" points="4.2 95.22 2.59 95.22 1.79 96.62 2.59 98.01 4.2 98.01 5 96.62 4.2 95.22"/>
    <polygon class="cls-2" points="79.69 95.24 78.09 95.24 77.29 96.64 78.09 98.03 79.69 98.03 80.5 96.64 79.69 95.24"/>
  </g>
</svg>