<svg width="9" height="7" viewBox="0 0 9 7" fill="none" xmlns="http://www.w3.org/2000/svg">
<path d="M8.84488 0.170798C8.9442 0.280193 9 0.428545 9 0.583229C9 0.737914 8.9442 0.886266 8.84488 0.995661L3.54687 6.8292C3.44752 6.93856 3.31278 7 3.1723 7C3.03181 7 2.89708 6.93856 2.79773 6.8292L0.148722 3.91243C0.0522141 3.80241 -0.00118708 3.65505 2.00278e-05 3.5021C0.00122714 3.34915 0.0569459 3.20283 0.155175 3.09467C0.253405 2.98652 0.386286 2.92517 0.525198 2.92384C0.66411 2.92251 0.797939 2.98131 0.897861 3.08757L3.1723 5.59191L8.09574 0.170798C8.19509 0.0614363 8.32983 0 8.47031 0C8.6108 0 8.74553 0.0614363 8.84488 0.170798Z" fill="#FFFFFB"/>
</svg>
