<svg width="14" height="14" viewBox="0 0 14 14" fill="none" xmlns="http://www.w3.org/2000/svg">
<path d="M13.7143 7C13.7143 10.866 10.6442 14 6.85714 14C3.07005 14 0 10.866 0 7C0 3.13401 3.07005 0 6.85714 0C10.6442 0 13.7143 3.13401 13.7143 7Z" fill="#FF4B59"/>
<path fill-rule="evenodd" clip-rule="evenodd" d="M4.07464 4.16652C4.17473 4.06426 4.31046 4.00682 4.45199 4.00682C4.59352 4.00682 4.72925 4.06426 4.82934 4.16652L6.85381 6.23543L8.87827 4.16652C8.92751 4.11442 8.9864 4.07287 9.05152 4.04428C9.11664 4.0157 9.18667 4.00065 9.25754 4.00002C9.32841 3.99939 9.39869 4.01319 9.46429 4.04062C9.52988 4.06804 9.58948 4.10855 9.63959 4.15976C9.6897 4.21097 9.72934 4.27188 9.75617 4.33891C9.78301 4.40594 9.79651 4.47777 9.7959 4.55019C9.79528 4.62262 9.78056 4.69419 9.75259 4.76074C9.72461 4.82729 9.68395 4.88748 9.63298 4.93779L7.60851 7.0067L9.63298 9.07561C9.7302 9.17849 9.784 9.31627 9.78278 9.45928C9.78156 9.6023 9.72543 9.73911 9.62647 9.84024C9.52751 9.94137 9.39365 9.99874 9.2537 9.99998C9.11376 10.0012 8.97893 9.94624 8.87827 9.84688L6.85381 7.77797L4.82934 9.84688C4.72868 9.94624 4.59386 10.0012 4.45391 9.99998C4.31397 9.99874 4.1801 9.94137 4.08114 9.84024C3.98218 9.73911 3.92605 9.6023 3.92483 9.45928C3.92362 9.31627 3.97741 9.17849 4.07464 9.07561L6.0991 7.0067L4.07464 4.93779C3.97458 4.83551 3.91837 4.69679 3.91837 4.55216C3.91837 4.40752 3.97458 4.26881 4.07464 4.16652Z" fill="#8B272D"/>
</svg>
