<svg width="773" height="1513" viewBox="0 0 773 1513" fill="none" xmlns="http://www.w3.org/2000/svg">
<g clip-path="url(#clip0_858_273)">
<path d="M301.578 62.0497V141.088C288.39 141.088 277.716 130.37 277.716 117.209V85.929C277.716 72.7316 288.427 62.0497 301.578 62.0497Z" fill="#FFFFFB"/>
<path d="M539.257 141.088V62.0497C552.445 62.0497 563.119 72.768 563.119 85.929V117.209C563.119 130.406 552.408 141.088 539.257 141.088Z" fill="#FFFFFB"/>
<path d="M487.56 0H353.056L285.804 116.553L353.056 233.142H487.56L554.813 116.553L487.56 0Z" fill="#FFFFFB"/>
<path d="M649.899 358.518V605.951L661.593 1025.61L655.728 1087.47L639.844 1104.21L661.557 1124.26C661.557 1124.26 653.214 1157.69 661.557 1161.04C669.9 1164.4 706.659 1139.32 706.659 1139.32V1100.85L721.705 672.85V258.225L649.862 358.554L649.899 358.518Z" fill="#FFFFFB"/>
<path d="M691.685 677.042L650.736 635.809L652.157 686.521L691.685 677.042Z" fill="#03031F"/>
<path d="M141.462 326.508L123.647 786.85V1104.5L141.462 1161.37H158.148L183.796 1123.46L190.463 1110.08L170.425 1088.9L179.315 765.888L202.886 465.227L141.462 326.508Z" fill="#FFFFFB"/>
<path d="M180.516 750.539L163.284 717.728H148.129L170.971 761.221L150.934 800.777V817.511L178.476 796.912L180.516 750.539Z" fill="#03031F"/>
<path d="M773 216.153H67.835L253.671 558.812L290.722 725.019L561.516 648.022L568.62 573.395L773 216.153Z" fill="#FFFFFB"/>
<path d="M454.007 734.863C452.623 734.389 377.538 755.607 377.538 755.607L364.313 773.507H398.012L388.03 764.94L453.971 734.863H454.007Z" fill="#03031F"/>
<path d="M767.644 225.486L663.269 295.848L721.741 282.505V310.905L767.644 225.486Z" fill="#03031F"/>
<path d="M97.6357 277.875L202.886 310.905H115.56L97.6357 277.875Z" fill="#03031F"/>
<path d="M355.533 774.2C364.204 770.846 489.491 774.2 489.491 774.2L469.454 1444.46L392.584 1509.68C392.584 1509.68 568.839 1517.19 561.334 1509.68C553.829 1502.17 519.584 1426.09 519.584 1426.09L561.48 645.397L290.686 722.395L202.886 1118.46L131.991 1412.71L0 1513H190.463L183.796 1417.7L270.685 1126.78L355.57 774.163L355.533 774.2Z" fill="#FFFFFB"/>
<path d="M296.77 218.523L332.072 196.722L343.292 216.153L341.689 268.177L389.888 285.822H442.75C448.615 285.822 510.403 238.173 510.403 238.173L507.051 216.153H496.741L507.379 197.706L539.257 211.414V247.36L482.861 306.712L381.655 320.931L364.35 499.825H347.518L336.662 361.908L317.463 549.99L294.074 674.563L267.333 671.209L280.813 490.638V258.225L296.77 218.559V218.523Z" fill="#F4C916"/>
<path d="M347.773 111.121V121.438L355.533 125.047L363.949 121.693V111.121H347.773Z" fill="#F4C916"/>
<path d="M453.789 114.584V124.902L461.549 128.547L469.965 125.193V114.584H453.789Z" fill="#F4C916"/>
<path d="M389.888 107.001L381.618 151.078L397.247 171.931H420.308L429.307 161.942L405.481 165.405L389.888 151.953L395.498 107.001H389.888Z" fill="#03031F"/>
<path d="M429.307 99.3817L442.823 114.584H479.254L494.446 101.569L429.307 99.3817Z" fill="#03031F"/>
<path d="M327.372 97.2307L338.666 111.121H380.744L389.888 101.569L327.372 97.2307Z" fill="#03031F"/>
</g>
<defs>
<clipPath id="clip0_858_273">
<rect width="773" height="1513" fill="white"/>
</clipPath>
</defs>
</svg>
