<svg width="90" height="90" viewBox="0 0 90 90" fill="none" xmlns="http://www.w3.org/2000/svg">
<path d="M79.3021 49.0196L69.592 15.9837L61.3125 10.5283L45.1189 12.2032L23.7505 16.7973H17.7692L5 48.3655L23.6136 82.1351L24.6181 83.9695L40.5682 85.9634L43.5512 86.3304L56.5488 87.9574L57.0054 88.0212L57.7968 86.5856L57.9794 86.2506L65.1631 73.2181L70.7182 63.1367L74.9036 59.1807L79.3021 49.0196Z" fill="#FFFFFB"/>
<path d="M59.197 65.689C59.197 65.689 69.5159 78.4184 68.831 78.53C68.1461 78.6417 65.6501 85.0383 65.6501 85.0383L62.1039 86.8248L57.6294 86.5696L53.9462 85.4849L48.5281 78.7215L45.0732 76.6796L59.2122 65.7049L59.197 65.689Z" fill="#FFFFFB"/>
<path d="M23.0505 20.7052C23.0505 20.7052 19.002 4.54622 19.6717 4.75359C20.3414 4.96096 25.2269 0.334961 25.2269 0.334961H29.1535L33.0802 2.58414L35.9567 5.23212L38.057 13.7981L40.3247 17.2118L23.0505 20.6892V20.7052Z" fill="#FFFFFB"/>
<path d="M60.3385 9.76255C61.967 10.257 69.6376 15.1223 69.6376 15.1223L71.6162 18.6635L81.9655 17.9298L84.6442 25.2037L79.5304 34.0249L76.6234 36.3379L80.4588 48.4931L78.1302 57.9843L67.6134 68.7516L65.2087 68.0497L74.5079 56.7081L76.6082 47.9347L74.1578 39.2571L72.4685 34.5194L79.4999 26.5915V21.471L71.0074 20.6096L69.3789 16.7812L60.308 9.74658L60.3385 9.76255Z" fill="#03031F"/>
<path d="M62.3474 86.2504C62.3474 86.2504 62.2105 86.4896 62.0126 86.8246C61.4038 87.7817 60.2776 89.6162 60.3384 89.345C60.3384 89.2014 58.8621 89.1216 57.0206 89.1057L56.5488 87.9572L43.5512 86.3301L43.2468 86.5215H39.6246L40.5682 85.9632L48.7411 81.1299L50.4761 82.087L51.8155 82.8367L55.179 84.7031L57.9794 86.2504H62.3474Z" fill="#03031F"/>
<path d="M64.5238 69.8682V73.3457L67.4917 76.4562L66.5328 82.4062L69.0593 80.3803L69.592 76.1372L67.0503 72.245L65.2239 69.8682" fill="#03031F"/>
<path d="M36.3676 4.14743L31.4821 0L23.9788 0.366905H27.6467C27.6467 0.366905 34.0999 3.41366 34.0999 3.65293C34.0999 3.89221 36.2458 13.862 36.2458 13.862L37.783 14.6436L40.7204 13.3675L38.6201 12.4742" fill="#03031F"/>
<path d="M59.4101 17.8178L71.6162 43.3244L72.4989 48.4927H70.2312L66.5024 39.0175L57.0054 16.7969L59.4101 17.8178Z" fill="#03031F"/>
<path d="M74.584 18.4561L66.7611 19.3334L62.8954 22.4758L66.7003 20.8647L71.0378 20.6095L74.9036 20.4022L74.584 18.4561Z" fill="#03031F"/>
<path d="M13.1273 28.2825L19.5043 18.4563L31.9843 15.5531L40.6747 14.4524L43.8404 10.5283L37.3112 13.1763L17.754 15.7445L13.1273 28.2825Z" fill="#F4C916"/>
<path d="M67.0655 65.8164L63.9759 71.7025L62.3474 74.8131L53.3527 80.3323L50.9784 81.7839L50.4761 82.087L43.5512 86.3301L43.2468 86.5215H28.0577L23.8114 84.0171L23.1874 82.087L23.6136 82.1349L40.5682 84.0171L48.7868 79.0722L51.9981 77.1261L59.06 72.8829L60.1558 66.8692L61.556 59.2603L67.0655 65.8164Z" fill="#F4C916"/>
<path d="M31.543 43.8989L28.4838 29.4468L23.9788 33.1476L29.9601 45.5419L26.8401 47.2009L28.4838 51.7631L31.543 43.8989Z" fill="#F4C916"/>
<path d="M60.5059 18.121L62.0887 21.2634L64.1586 20.0192V18.456L63.2606 17.8179L60.5059 18.121Z" fill="#F4C916"/>
<path d="M69.7442 38.2362L71.3118 41.3946L73.3817 40.1344V38.5712L72.4837 37.9331L69.7442 38.2362Z" fill="#F4C916"/>
</svg>
