<svg width="90" height="90" viewBox="0 0 90 90" fill="none" xmlns="http://www.w3.org/2000/svg">
<path d="M75.0309 53.418L66.1579 66.7854L44.3026 73.9796L19.586 64.6958L16.679 49.2865L20.7883 32.3938L32.4161 24.7529L53.8148 25.6941L69.6432 31.9152L75.0309 53.418Z" fill="#FFFFFB"/>
<path d="M15.3701 60.6279V38.1202L20.4383 31.5481L28.9917 25.6938H34.1511L27.4089 28.613L20.6057 35.201L17.4705 50.371L18.8707 64.8231L15.3701 60.6279Z" fill="#03031F"/>
<path d="M53.4191 36.6685L45.8245 33.9248L33.2684 34.5629L26.6326 36.6685H53.4191Z" fill="#03031F"/>
<path d="M35.1861 35.2965V29.4423C35.1861 29.4423 41.5479 19.8394 41.9892 19.7437C42.4306 19.648 46.3572 17 46.3572 17L51.3341 19.3768L53.4343 24.8642L52.993 26.9698L49.5077 20.5732L42.7959 21.5782L40.0411 32.0903L42.7959 35.7431L35.2013 35.2806L35.1861 35.2965Z" fill="#03031F"/>
<path d="M19.8344 44.3537L20.5765 44.4307L18.9522 61.6382L18.2101 61.5612C15.3324 61.2629 13.2308 58.5764 13.5155 55.5603L14.1088 49.2742C14.3935 46.2581 16.9567 44.0553 19.8344 44.3537Z" fill="#FFFFFB"/>
<path d="M71.3312 58.1067L70.5939 58.2237L68.124 41.127L68.8613 41.01C71.7205 40.5563 74.3888 42.6174 74.8217 45.614L75.7239 51.8596C76.1569 54.8563 74.1903 57.6529 71.3312 58.1067Z" fill="#FFFFFB"/>
<path d="M18.7337 44.2935L15.6289 44.9794L13.3307 50.1796L13.6199 55.0129L14.3352 50.2115L16.7551 45.3463L18.7337 44.2935Z" fill="#03031F"/>
<path d="M70.7086 59.2239L74.0417 56.7674L75.6397 54.9329L76.1268 51.8224L75.1375 47.5474L75.0309 52.5561L73.4177 56.1771L70.7086 57.1183V59.2239Z" fill="#03031F"/>
</svg>
