<svg width="90" height="90" viewBox="0 0 90 90" fill="none" xmlns="http://www.w3.org/2000/svg">
<path d="M15.9159 27.2281L13.0851 23.1923L12.9176 17.8964L15.9159 14.4189L21.8972 15.9981L24.3932 18.5823L19.8578 26.8293L15.9159 27.2281Z" fill="#FFFFFB"/>
<path d="M13.7852 26.4941L11 38.0112L12.385 44.5992V35.5387L20.0709 26.4941H13.7852Z" fill="#03031F"/>
<path d="M15.5354 27.5948L11.6848 22.4743L12.5676 17.5293L15.5354 14.7856L13.6178 18.63L14.4852 24.1173L16.9204 27.5948H15.5354Z" fill="#03031F"/>
<path d="M22.2473 22.4741C22.2473 22.4741 25.3064 18.55 25.7326 18.3586C26.1587 18.1671 31.2268 16.3486 31.2268 16.3486H25.7326L23.2061 18.9169L22.2473 22.49V22.4741Z" fill="#03031F"/>
<path d="M11.6848 50.2619L14.3026 63.071L22.2472 70.3769L31.9269 74.3967H41.3631L28.7917 70.5683L16.9204 63.9803L13.2677 50.2619V45.5083L11.6848 50.2619Z" fill="#03031F"/>
<path d="M20.0709 76.2314L25.0781 79.7088C25.3216 79.8683 29.8419 78.1775 29.8419 78.1775V74.3969L27.9851 70.106L28.0916 76.4069H23.9975L19.66 74.3969L20.0556 76.2314H20.0709Z" fill="#03031F"/>
<path d="M40.8304 14.7856L55.2586 17.2901L61.6203 21.8043L65.7297 32.5238L63.1728 20.8792L56.187 15.9979L40.8304 14.7856Z" fill="#03031F"/>
<path d="M46.5986 74.923C63.9477 74.923 78.0119 62.0607 78.0119 46.1942C78.0119 30.3277 63.9477 17.4653 46.5986 17.4653C29.2496 17.4653 15.1854 30.3277 15.1854 46.1942C15.1854 62.0607 29.2496 74.923 46.5986 74.923Z" fill="#F4C916"/>
<path d="M42.0175 27.5947L31.029 31.2477L26.5392 42.0309L29.644 50.8043V42.3978L31.9117 34.2625C31.9117 34.2625 40.1151 30.5138 42.0327 30.5138C43.9504 30.5138 53.0822 30.8489 53.0822 30.8489L42.0327 27.5947H42.0175Z" fill="#FFFFFB"/>
<path d="M57.298 35.5386L61.8334 41.8873V49.6877L56.8262 55.6536L50.9058 57.9825H46.5986L53.3409 59.3384L61.0268 56.7542L64.9839 49.5601L63.6902 41.5204L57.298 35.5386Z" fill="#FFFFFB"/>
<path d="M42.2306 14.7855L51.6972 10L60.555 10.1595L53.0517 11.0368L49.9013 15.9978L42.2306 14.7855Z" fill="#03031F"/>
</svg>
