<svg width="90" height="90" viewBox="0 0 90 90" fill="none" xmlns="http://www.w3.org/2000/svg">
<g clip-path="url(#clip0_953_391)">
<path d="M79.2101 57.7712C85.2127 40.4106 74.5561 20.4413 55.408 13.1685C36.2599 5.89564 15.8713 14.0734 9.86867 31.434C3.86607 48.7946 14.5226 68.764 33.6707 76.0368C52.8188 83.3096 73.2075 75.1318 79.2101 57.7712Z" fill="#FFFFFB"/>
<path d="M54.5396 64.5471L56.929 65.7116L58.9076 64.8024L58.5575 63.3986L56.2289 60.958L54.5396 64.5471Z" fill="#F4C916"/>
<path d="M64.1279 44.0974L66.5174 45.2619L68.496 44.3367L68.1459 42.933L65.8173 40.5083L64.1279 44.0974Z" fill="#F4C916"/>
<path d="M9.04815 29.5015L11.1485 54.37L20.9194 65.584L16.384 70.7045L17.4341 79.6055L24.0699 83.386L31.634 81.6792L32.3341 79.8447L27.4486 78.6643L31.1774 77.771L52.9263 79.9724L68.1611 73.5119L77.0037 62.0587L79.3323 49.0103L77.1254 39.2638L73.8684 31.2242L80.8999 38.1791L86.4246 49.8876L85.5571 64.4036L80.8999 72.3315C80.8999 72.3315 62.2406 81.2325 61.5405 81.2325C60.8404 81.2325 40.1722 82.5725 40.1722 82.5725L38.635 83.4179L29.2141 87.0708L18.6213 84.7578L12.1073 76.0961C12.1073 76.0961 14.3141 72.188 14.5576 71.4701C14.8012 70.7523 14.3294 67.3227 14.3294 67.3227L8.22629 56.9542L6.41516 51.5944L9.09381 29.5334L9.04815 29.5015Z" fill="#03031F"/>
<path d="M54.981 12.6725V6.64284L59.3338 5.271L65.3607 6.8183L72.8792 17.0433L74.6903 24.1098L72.5139 29.0389L71.205 21.9085L67.4458 14.5867L62.7429 9.2908L59.5164 9.75339L57.2487 12.1302L59.3338 16.6126L54.981 12.6725Z" fill="#03031F"/>
<path d="M48.5126 66.6689L52.0892 62.9043L54.9809 56.4439V53.0303L57.2182 57.5446L55.818 63.7657L50.7042 68.8862L48.5126 66.6689Z" fill="#03031F"/>
<path d="M58.9076 46.9845L62.3016 45.7722L64.0518 40.4763L63.7018 35.4355L66.3195 36.265V41.8481L63.7931 47.4152L58.9076 46.9845Z" fill="#03031F"/>
<path d="M56.1376 56.4439L60.6274 62.346L65.7716 62.0748L69.0895 58.055L68.7395 55.3433L65.1629 60.9742L60.3687 60.703L56.1376 56.4439Z" fill="#03031F"/>
<path d="M42.7443 77.5954L32.669 84.3589H22.6849L14.4055 77.5954L15.6078 66.0783L20.0976 62.9678L42.7443 77.5954Z" fill="#FFFFFB"/>
<path d="M57.2182 16.3257L56.6703 8.89219L62.1037 7.31299L71.2963 17.1551L73.0314 23.6474V30.8735L57.2182 16.3257Z" fill="#FFFFFB"/>
</g>
<defs>
<clipPath id="clip0_953_391">
<rect width="90" height="90" fill="white"/>
</clipPath>
</defs>
</svg>
