<svg width="90" height="90" viewBox="0 0 90 90" fill="none" xmlns="http://www.w3.org/2000/svg">
<path d="M83.5815 33.1496L71.7255 63.1865L64.3135 68.9769L25.0774 69.4076L18.2133 64.032L5.10928 34.011L24.3621 6.43069L63.5982 6L83.5815 33.1496Z" fill="#FFFFFB"/>
<path d="M31.5609 62.5166V57.9385L40.297 64.1596V67.2064L31.5609 62.5166Z" fill="#F4C916"/>
<path d="M62.0762 62.022V57.4438L53.3402 63.665V66.7117L62.0762 62.022Z" fill="#F4C916"/>
<path d="M63.1264 71.7208L55.7905 72.1994L52.0617 82.0734L48.5764 84.4024L42.0625 82.6956L37.6488 74.8793L36.2486 72.4546L32.1697 70.8595L29.0345 67.2065L36.3703 70.3809H39.6273L44.3454 79.1543L48.6982 80.9887L51.6052 79.7605L54.0403 72.0877L56.4906 70.014L64.6331 64.8936L63.1264 71.7208Z" fill="#03031F"/>
<path d="M69.8839 44.3954L69.9752 44.1721L76.337 28.3959L82.7444 26.8008L88.8018 32.3998L86.5341 42.88L78.346 49.1968L69.8839 44.3954Z" fill="#FFFFFB"/>
<path d="M79.2896 24.105L75.2107 30.3261L72.3038 38.3657L77.8285 28.9224L80.1114 28.4438L83.5815 28.6831L87.3103 34.5373L85.5753 43.3107L80.8572 47.3305L87.3103 43.1193L88.8932 35.7178L89.4563 25.0142L79.2896 24.105Z" fill="#03031F"/>
<path d="M16.9349 43.1513L16.8588 42.9439L10.4818 27.1518L4.07436 25.5566L1.60876 32.3999L3.87649 42.8801L12.0799 49.1969L16.9349 43.1513Z" fill="#FFFFFB"/>
<path d="M2.15667 25.3814L6.70734 26.3066L12.1103 32.8786L16.1283 41.3011L10.01 22.6377L2.15667 25.3814Z" fill="#03031F"/>
<path d="M4.60703 24.105L0.999992 32.5753L3.55687 43.6776L11.2428 50.3294L16.8284 64.2871L22.3987 67.2062L18.2134 64.0319L15.6108 52.6265L11.2428 46.0544L4.53093 42.4493L2.15667 31.9691L4.53093 24.5516L4.60703 24.105Z" fill="#03031F"/>
</svg>
