<svg width="90" height="90" viewBox="0 0 90 90" fill="none" xmlns="http://www.w3.org/2000/svg">
<path d="M81.6324 41.5104C81.6324 25.814 69.0762 13.1006 53.5979 13.1006C47.1904 13.1006 41.3004 15.3019 36.5824 18.9708L35.3192 18.1891L18.745 27.3613L12.2462 38.7667L7.99997 66.1397L14.4683 70.9092L30.2358 76.3487L37.7238 77.0825L65.667 68.5803L67.4325 66.2035C75.9098 61.3223 81.6476 52.1023 81.6476 41.5104H81.6324Z" fill="#FFFFFB"/>
<path d="M26.2939 32.1787L26.9027 43.2491L28.2116 46.3597L21.5759 48.3696L19.9169 51.5599V55.6754L22.9913 58.3234H27.0701L28.6682 59.3283L21.4084 59.0572L18.6993 55.5L18.0906 52.1182L20.0083 47.0775L23.5848 45.8014L25.0611 42.7865L24.7111 40.5055L24.1936 35.0181L26.2939 32.1787Z" fill="#03031F"/>
<path d="M60.812 61.8646C60.812 61.8646 70.2329 60.6523 70.7047 61.0032C71.1765 61.3541 75.5902 65.7568 75.5902 65.7568L65.667 68.5643L68.2087 64.4168L65.1191 62.3431L60.812 61.8486V61.8646Z" fill="#03031F"/>
<path d="M33.7211 58.8501L32.6709 60.4133V61.4343L34.2538 62.0723L35.3192 60.8281L33.7211 58.8501Z" fill="#F4C916"/>
<path d="M24.4676 37.9531L24.6806 40.0587L24.7872 40.8723L23.9045 41.7975L22.8391 40.5532L24.4676 37.9531Z" fill="#F4C916"/>
<path d="M31.0272 50.0444L33.2341 55.5318L39.8698 63.1248L44.4053 63.9383L39.1697 64.4328L34.8625 60.397L32.5339 57.2386L31.0272 50.0444Z" fill="#03031F"/>
<path d="M62.3187 68.5806L37.0237 74.7857H28.6682L20.0996 71.8666L29.2617 78.0877H36.2475L52.0303 74.4188L63.7189 69.9205L62.3187 68.5806Z" fill="#03031F"/>
<path d="M33.1275 12L17.4209 26.6276L12.5354 32.9764L9.73502 44.6689V53.8092L12.2919 41.5105L18.6993 31.5088L25.5634 25.4153L36.2475 19.4973L33.1275 12Z" fill="#03031F"/>
</svg>
