<svg width="119" height="59" viewBox="0 0 119 59" fill="none" xmlns="http://www.w3.org/2000/svg">
<path d="M117.704 0.384766L91.2427 37.7267" stroke="#FFFFFB" stroke-width="1.02228" stroke-miterlimit="10"/>
<path d="M117.704 0.384766L76.623 36.3746" stroke="#FFFFFB" stroke-width="1.02228" stroke-miterlimit="10"/>
<path d="M38.1198 37.5155L0.412109 0.384766L27.3207 37.0548" stroke="#FFFFFB" stroke-width="1.02228" stroke-miterlimit="10"/>
<path d="M9.69562 36.6285L18.2196 36.2746C18.4035 36.2664 18.5874 36.2637 18.7658 36.2637C23.9005 36.2637 27.3447 39.3053 27.5423 44.0118C27.6356 46.2499 26.8507 48.2932 25.3358 49.7605C23.777 51.2718 21.5458 52.1275 18.881 52.2372L17.6076 52.2893L17.8217 57.4154L10.5683 57.7171L9.69287 36.6285H9.69562ZM17.3689 46.4528L18.4364 46.4089C18.9414 46.387 19.3613 46.195 19.6522 45.8494C19.9623 45.4792 20.1133 44.9498 20.0886 44.3217C20.0392 43.1204 19.375 42.3772 18.3596 42.3772C18.3294 42.3772 18.302 42.3772 18.2718 42.3772L17.2042 42.421L17.3716 46.4528H17.3689Z" fill="#03031F"/>
<path d="M18.7683 36.8119C23.6972 36.8119 26.8175 39.7741 26.9959 44.0335C27.1716 48.2627 24.0924 51.4717 18.8616 51.6884L17.0393 51.7652L17.2534 56.8913L11.0978 57.1464L10.269 37.152L18.2469 36.8202C18.4225 36.8119 18.5981 36.8092 18.771 36.8092M16.8445 47.023L18.4609 46.9572C19.7947 46.9023 20.7031 45.8875 20.6372 44.2995C20.5741 42.7554 19.6355 41.8283 18.3594 41.8283C18.3237 41.8283 18.2853 41.8283 18.2469 41.8283L16.6304 41.8942L16.8445 47.0203M18.7683 35.7148C18.5817 35.7148 18.3896 35.7176 18.1975 35.7258L10.2196 36.0577L9.12183 36.1043L9.16848 37.2014L9.99728 57.1957L10.0439 58.2928L11.1417 58.2462L17.2973 57.9911L18.3951 57.9445L18.3484 56.8474L18.181 52.8184L18.9055 52.7882C21.7075 52.673 24.0622 51.7624 25.7198 50.1579C27.3499 48.5781 28.1925 46.3895 28.0909 43.9923C27.8851 39.0417 24.139 35.7176 18.7683 35.7176V35.7148ZM17.7721 42.9474L18.2908 42.9254C18.3127 42.9254 18.3347 42.9254 18.3566 42.9254C19.3693 42.9254 19.5202 43.9183 19.5367 44.3434C19.5559 44.8343 19.4516 45.232 19.2293 45.4953C19.04 45.723 18.7628 45.8437 18.4115 45.8574L17.8928 45.8793L17.7721 42.9446V42.9474Z" fill="#FFFFFB"/>
<path d="M35.0487 57.6978C34.8868 57.6978 34.7221 57.6978 34.5547 57.6895C28.9068 57.5113 25.8907 54.3681 26.0663 48.8388L26.4698 36.0605L33.7259 36.2882L33.3389 48.5536C33.317 49.2914 33.4597 49.8728 33.7588 50.2321C34.0168 50.542 34.401 50.7093 34.906 50.7231H34.9801C36.0147 50.7231 36.5608 50.0292 36.6047 48.6551L36.9917 36.3897L43.9898 36.6118L43.5864 49.3901C43.4135 54.8234 40.4633 57.695 35.0487 57.695V57.6978Z" fill="#03031F"/>
<path d="M27.0027 36.6245L33.161 36.8193L32.7906 48.5389C32.7329 50.3847 33.6056 51.235 34.8873 51.2733C34.9174 51.2733 34.9504 51.2733 34.9806 51.2733C36.2155 51.2733 37.0965 50.4752 37.1541 48.6733L37.5246 36.9537L43.425 37.1402L43.038 49.3727C42.8734 54.5454 40.0631 57.1482 35.0492 57.1482C34.8927 57.1482 34.7336 57.1482 34.5744 57.14C29.264 56.9727 26.4483 54.1888 26.6185 48.8543L27.0054 36.6218M25.9406 35.4918L25.9049 36.5889L25.518 48.8214C25.3314 54.7045 28.534 58.0478 34.536 58.2371C34.7089 58.2426 34.879 58.2453 35.0464 58.2453C40.7245 58.2453 43.9519 55.1077 44.1303 49.4083L44.5173 37.1758L44.5529 36.0788L43.4552 36.0431L37.5548 35.8566L36.457 35.8209L36.4214 36.918L36.0509 48.6376C36.0015 50.1735 35.3099 50.1735 34.9751 50.1735C34.9559 50.1735 34.9367 50.1735 34.9174 50.1735C34.407 50.1571 34.2341 49.9486 34.1765 49.8801C33.9679 49.6277 33.8636 49.1642 33.8828 48.569L34.2533 36.8495L34.289 35.7524L33.1912 35.7167L27.0329 35.522L25.9351 35.4863L25.9406 35.4918Z" fill="#FFFFFB"/>
<path d="M42.5239 36.7153L51.0232 35.9693C51.402 35.9364 51.7779 35.9199 52.1457 35.9199C56.9456 35.9199 60.302 38.8052 60.6944 43.2676C61.1061 47.9522 57.7826 51.4135 52.4229 51.8852L51.155 51.9977L51.6051 57.1101L44.3736 57.7436L42.5239 36.7181V36.7153ZM50.6418 46.1749L51.7066 46.0817C52.2116 46.0378 52.6232 45.8238 52.8949 45.4673C53.1886 45.0833 53.3148 44.5485 53.2599 43.9204C53.1584 42.752 52.5134 42.0554 51.5364 42.0554C51.4761 42.0554 51.4157 42.0554 51.3526 42.0636L50.2878 42.1568L50.6418 46.1749Z" fill="#03031F"/>
<path d="M52.1455 36.4682C56.7616 36.4682 59.7886 39.2301 60.1481 43.3167C60.5186 47.5323 57.5931 50.8811 52.376 51.3391L50.5593 51.4982L51.0094 56.6106L44.8729 57.1509L43.1193 37.2169L51.0725 36.5175C51.4402 36.4846 51.797 36.4709 52.1455 36.4682ZM50.1421 46.7698L51.7531 46.6272C53.0841 46.5092 53.9431 45.456 53.8031 43.8707C53.6714 42.3787 52.7493 41.5038 51.5335 41.5038C51.4567 41.5038 51.3798 41.5065 51.303 41.5148L49.6921 41.6574L50.1421 46.7698ZM52.1455 35.3711C51.7613 35.3711 51.3689 35.3876 50.9737 35.4232L43.0205 36.1226L41.9282 36.2186L42.0243 37.3102L43.7779 57.2442L43.874 58.3358L44.9662 58.2398L51.1027 57.6995L52.1949 57.6035L52.0989 56.5119L51.7448 52.4938L52.4666 52.4307C55.2604 52.1866 57.5711 51.1691 59.1519 49.4878C60.7052 47.8367 61.4462 45.6096 61.2376 43.2207C60.8177 38.4512 57.2473 35.3711 52.1428 35.3711H52.1455ZM50.8831 42.6557L51.4018 42.6091C51.4484 42.6064 51.4924 42.6036 51.5363 42.6036C52.4556 42.6036 52.6669 43.4593 52.7136 43.9695C52.752 44.4083 52.7273 45.4423 51.6598 45.5356L51.1411 45.5822L50.8831 42.6557Z" fill="#FFFFFB"/>
<path d="M58.8474 57.4594L59.5911 36.3652L68.1179 36.6669C73.4941 36.8562 76.9905 40.2434 76.8203 45.0953C76.6611 49.6098 73.1291 52.6432 68.0328 52.6432C67.8764 52.6432 67.7172 52.6432 67.5553 52.635L66.2819 52.5911L66.1008 57.7199L58.8474 57.4649V57.4594ZM67.5553 46.7848H67.6321C68.6558 46.7848 69.3199 46.036 69.3638 44.8292C69.4078 43.5868 68.7711 42.7914 67.7008 42.753L66.6332 42.7146L66.4905 46.7464L67.5581 46.7848H67.5553Z" fill="#03031F"/>
<path d="M60.121 36.9304L68.0989 37.2102C73.3324 37.3939 76.4281 40.6605 76.2716 45.0708C76.1262 49.1766 73.0004 52.0893 68.033 52.0893C67.8821 52.0893 67.7284 52.0893 67.5747 52.0811L65.7525 52.018L65.5713 57.1469L59.4157 56.9302L60.121 36.9331M67.6324 47.3335C68.9195 47.3335 69.8553 46.401 69.9102 44.8486C69.9651 43.2578 69.0512 42.2513 67.7174 42.2046L66.101 42.147L65.9199 47.2759L67.5363 47.3335C67.5692 47.3335 67.5994 47.3335 67.6324 47.3335ZM59.0617 35.7977L59.0233 36.8947L58.318 56.8918L58.2795 57.9889L59.3773 58.0273L65.5329 58.244L66.6307 58.2824L66.6691 57.1853L66.8118 53.1535L67.5363 53.1782C67.7037 53.1837 67.8684 53.1864 68.033 53.1864C73.4477 53.1864 77.1992 49.9418 77.3694 45.1092C77.5533 39.9282 73.8429 36.3133 68.1373 36.1131L60.1594 35.8333L59.0617 35.7949V35.7977ZM67.056 46.2172L67.1603 43.2825L67.679 43.3017C68.033 43.3154 68.3075 43.4334 68.4996 43.661C68.7219 43.9243 68.8316 44.322 68.8152 44.8129C68.7987 45.2408 68.6533 46.2392 67.6324 46.2392C67.6131 46.2392 67.5939 46.2392 67.5747 46.2392L67.056 46.22V46.2172Z" fill="#FFFFFB"/>
<path d="M74.7571 56.7472L76.014 35.6777L92.2278 36.6404L91.8408 43.116L82.8722 42.5811L82.8173 43.5356L88.8385 43.8921L88.4844 49.8548L82.4605 49.4955L82.3892 50.705L91.613 51.2536L91.2288 57.7264L74.7571 56.7472Z" fill="#03031F"/>
<path d="M76.5269 36.2559L91.6457 37.1555L91.3246 42.5339L82.356 42.0018L82.2352 44.0506L88.2564 44.4099L87.9655 49.2755L81.9443 48.9162L81.8071 51.2201L91.0309 51.7686L90.7098 57.1471L75.3359 56.2337L76.5242 36.2586M75.4978 35.0957L75.4319 36.19L74.2436 56.1652L74.1777 57.2595L75.2727 57.3253L90.6467 58.2387L91.7417 58.3045L91.8076 57.2102L92.1287 51.8317L92.1945 50.7374L91.0995 50.6715L82.9707 50.1888L82.9762 50.0736L87.9023 50.3671L88.9973 50.4329L89.0632 49.3386L89.3541 44.473L89.4117 43.5186L91.2614 43.6283L92.3564 43.6941L92.4223 42.5998L92.7434 37.2213L92.8093 36.127L91.7143 36.0611L76.5955 35.1615L75.5005 35.0957H75.4978Z" fill="#FFFFFB"/>
<path d="M95.9267 43.7241L90.6712 44.0176L90.2815 37.0292L108.038 36.0391L108.427 43.0275L103.175 43.3209L103.959 57.4075L96.7116 57.8134L95.9267 43.7241Z" fill="#03031F"/>
<path d="M107.519 36.6184L107.848 42.5097L102.595 42.8032L103.383 56.8924L97.2329 57.2353L96.4453 43.146L91.1925 43.4395L90.8632 37.5481L107.522 36.6184M108.553 35.4609L107.458 35.5213L90.8001 36.4511L89.7051 36.5114L89.7655 37.6057L90.0948 43.4971L90.1552 44.5914L91.2502 44.5311L95.4079 44.2979L96.1324 57.2901L96.1928 58.3845L97.2878 58.3241L103.438 57.9813L104.533 57.921L104.473 56.8266L103.748 43.8344L107.906 43.6013L109.001 43.5409L108.94 42.4466L108.611 36.5553L108.551 35.4609H108.553Z" fill="#FFFFFB"/>
<path d="M117.704 0.384766H0.412109V27.5184H117.704V0.384766Z" fill="#0707D9"/>
<path d="M9.57031 6.39283L14.8121 6.1789L18.7338 12.1443L22.156 5.87995L27.3978 5.66602L28.0482 21.5655L23.1522 21.7657L22.8092 13.3456L18.9753 20.0159H18.9341L14.5678 13.6829L14.9109 22.1031L10.2207 22.295L9.57031 6.39558V6.39283Z" fill="#FFFFFB"/>
<path d="M38.5012 6.02148L44.3385 21.9347H39.2339L38.5204 19.7103H33.0893L32.3758 21.9347H27.4771L33.3143 6.02148H38.4984H38.5012ZM37.2552 15.8349L35.8062 11.3259L34.3352 15.8349H37.2552Z" fill="#FFFFFB"/>
<path d="M56.1665 11.5648L51.1169 11.2193C51.18 10.3032 50.6256 9.71351 49.6679 9.64768C48.8939 9.59557 48.356 9.98778 48.3149 10.5775C48.2847 11.0053 48.6085 11.3536 49.5965 11.584L50.9248 11.9214C54.9316 12.8896 56.2571 14.7381 56.065 17.5467C55.8647 20.4786 53.4606 22.4205 49.0833 22.1215C44.6649 21.8198 42.431 19.4583 42.6505 16.2219L47.7001 16.5675C47.6343 17.5439 48.2435 18.2214 49.4017 18.2982C50.4198 18.3667 50.9605 17.9334 51.0071 17.2834C51.04 16.8144 50.7382 16.4057 49.6294 16.1671L48.2984 15.8709C44.2669 14.9822 43.0759 12.9581 43.2543 10.3334C43.4519 7.42335 45.7516 5.53362 50.0274 5.82435C54.3031 6.11507 56.3778 8.40524 56.1638 11.5593L56.1665 11.5648Z" fill="#FFFFFB"/>
<path d="M69.1172 6.57036L68.7467 11.2494L64.5752 10.9203L63.6888 22.1051L58.8038 21.7183L59.6902 10.5336L55.5188 10.2044L55.8893 5.52539L69.1172 6.5731V6.57036Z" fill="#FFFFFB"/>
<path d="M81.1212 6.02148V10.3056H73.9749V11.9375H78.772V15.813H73.9749V17.6478H81.3243V21.9319H69.0762V6.02148H81.1212Z" fill="#FFFFFB"/>
<path d="M89.4917 6.04987C93.0374 6.283 95.425 8.83372 95.2055 12.1332C95.082 14.0065 94.0803 15.5342 92.5489 16.4146L95.2631 22.3799L89.5603 22.0042L87.3456 17.1359L86.4893 17.0783L86.1792 21.782L81.2915 21.4584L82.3426 5.57812L89.4917 6.04987ZM88.0097 13.5978C89.2721 13.6801 90.0762 12.9971 90.1531 11.7958C90.2299 10.5945 89.5246 9.83206 88.2622 9.74978L86.9778 9.66476L86.7226 13.5128L88.007 13.5978H88.0097Z" fill="#FFFFFB"/>
<path d="M108.008 10.8761L102.95 11.0708C102.914 10.152 102.302 9.62543 101.342 9.66383C100.568 9.694 100.074 10.1411 100.096 10.7335C100.112 11.1613 100.472 11.474 101.479 11.6002L102.835 11.7922C106.921 12.3297 108.436 14.0275 108.546 16.8387C108.658 19.7734 106.476 21.9621 102.088 22.1294C97.6615 22.2995 95.1888 20.1903 95.0653 16.9485L100.123 16.7537C100.162 17.7329 100.84 18.339 102 18.2951C103.021 18.2567 103.513 17.7685 103.488 17.1158C103.469 16.6468 103.128 16.271 102 16.1531L100.647 16.0022C96.5446 15.5469 95.1422 13.6627 95.0434 11.0324C94.9309 8.11694 97.0138 5.99409 101.298 5.82952C105.563 5.66496 107.887 7.71925 108.011 10.8788L108.008 10.8761Z" fill="#FFFFFB"/>
<path d="M0.551758 27.3789L9.55374 36.6401" stroke="#FFFFFB" stroke-width="1.02228" stroke-miterlimit="10"/>
<path d="M107.075 37.0164L117.704 27.5156" stroke="#FFFFFB" stroke-width="1.02228" stroke-miterlimit="10"/>
</svg>
