<svg width="1113" height="1953" viewBox="0 0 1113 1953" fill="none" xmlns="http://www.w3.org/2000/svg">
<path d="M625.059 1.52588e-05C702.195 1.52588e-05 764.804 79.5872 764.804 177.641V426.897H485.314V177.641C485.314 79.5872 547.923 1.52588e-05 625.059 1.52588e-05Z" fill="#FFFFFB"/>
<path d="M497.504 106.071V231.375C481.063 231.375 467.705 214.394 467.705 193.495V143.906C467.705 123.007 481.063 106.026 497.504 106.026V106.071Z" fill="#FFFFFB"/>
<path d="M749.887 231.33V106.026C766.328 106.026 779.686 123.007 779.686 143.905V193.495C779.686 214.394 766.328 231.375 749.887 231.375V231.33Z" fill="#FFFFFB"/>
<path d="M612.871 1839.42H756.655L849.275 1585.35H612.871V1839.42Z" fill="#FFFFFB"/>
<path d="M612.871 1839.42H469.051L376.432 1585.35H612.871V1839.42Z" fill="#FFFFFB"/>
<path d="M632.359 261.147C367.184 261.147 152.182 534.409 152.182 871.54V1585.35H1112.5V871.54C1112.5 534.455 897.533 261.147 632.323 261.147H632.359Z" fill="white"/>
<path d="M447.934 307.809L542.715 472.343L485.315 284.388L447.934 307.809Z" fill="#03031F"/>
<path d="M764.769 269.93L713.321 369.74L788.083 287.811L764.769 269.93Z" fill="#03031F"/>
<path d="M152.182 1363.16L175.567 1396.36H152.182V1363.16Z" fill="#03031F"/>
<path d="M600.682 879.963L655.283 604.403H546.046L600.682 879.963Z" fill="#EACA40"/>
<path d="M655.283 604.403L600.682 513.331L546.046 604.403" fill="#EACA40"/>
<path d="M547.361 471.819L600.379 526.485L653.361 471.819" stroke="#EACA40" stroke-width="13" stroke-miterlimit="10"/>
<path d="M434.399 1396.36H0V1667.64H434.399V1396.36Z" fill="#EACA40"/>
<path d="M31.1445 1396.36V1289.97H400.808V1396.36H379.691V1319.92H54.7069V1396.36H31.1445Z" fill="#EACA40"/>
<path d="M152.182 1072.06L90.459 1253.8L162.741 1381.9L278.108 1375.68L303.3 1274.48L317.119 1319.92L371.543 1253.8L305.745 1087.56L152.182 1072.06Z" fill="#FFFFFB"/>
<path d="M152.182 1033.1L198.917 1052.92L152.182 1072.06V1033.1Z" fill="#03031F"/>
<path d="M319.847 1324.07L300.82 1264.97L282.218 1359.24L319.847 1324.07Z" fill="#03031F"/>
<path d="M309.253 1107.15L319.847 1083.05L345.004 1174.62L309.253 1107.15Z" fill="#03031F"/>
<path d="M367.22 1226.96L378.594 1260.02L367.22 1289.97H349.894L368.85 1252.45L367.22 1226.96Z" fill="#03031F"/>
<path d="M612.871 1839.42H756.655L957.059 1952.48H652.661L612.871 1839.42Z" fill="#FFFFFB"/>
<mask id="mask0_1143_1258" style="mask-type:luminance" maskUnits="userSpaceOnUse" x="612" y="1839" width="346" height="114">
<path d="M612.871 1839.42H756.655L957.059 1952.48H652.661L612.871 1839.42Z" fill="white"/>
</mask>
<g mask="url(#mask0_1143_1258)">
<path d="M742.057 1961.48L715.908 1921.76H698.582L689.369 1961.48H742.057Z" fill="#03031F"/>
</g>
<path d="M612.871 1839.42H469.052L268.647 1952.48H573.045L612.871 1839.42Z" fill="#FFFFFB"/>
<mask id="mask1_1143_1258" style="mask-type:luminance" maskUnits="userSpaceOnUse" x="268" y="1839" width="345" height="114">
<path d="M612.871 1839.42H469.052L268.647 1952.48H573.045L612.871 1839.42Z" fill="white"/>
</mask>
<g mask="url(#mask1_1143_1258)">
<path d="M481.914 1961.48L508.063 1921.76H525.389L534.602 1961.48H481.914Z" fill="#03031F"/>
</g>
<path d="M613.919 157.238L578.734 226.465L588.23 260.201H613.919L596.592 223.718L613.919 157.238Z" fill="#03031F"/>
<path d="M572.361 204.844C580.093 204.844 586.361 195.452 586.361 183.867C586.361 172.282 580.093 162.891 572.361 162.891C564.629 162.891 558.361 172.282 558.361 183.867C558.361 195.452 564.629 204.844 572.361 204.844Z" fill="#F4C916"/>
<path d="M659.361 204.844C667.093 204.844 673.361 195.452 673.361 183.867C673.361 172.282 667.093 162.891 659.361 162.891C651.629 162.891 645.361 172.282 645.361 183.867C645.361 195.452 651.629 204.844 659.361 204.844Z" fill="#F4C916"/>
<path d="M536.479 166.966H701.415L703.329 149.536L536.479 147.689V166.966Z" fill="#03031F"/>
</svg>
