<svg width="1167" height="1536" viewBox="0 0 1167 1536" fill="none" xmlns="http://www.w3.org/2000/svg">
<g clip-path="url(#clip0_858_388)">
<path d="M410.175 56.2136L413.619 55.6668C430.119 53.0468 445.651 64.0451 448.32 80.1666L467.416 195.5L434.113 200.788C420.413 202.964 407.52 193.828 405.305 180.449L389.406 84.4245C387.185 71.0085 396.513 58.383 410.175 56.2136Z" fill="#FFFFFB"/>
<path d="M581.526 0C651.724 0 708.696 55.7917 708.696 124.536V211.791H454.355V124.536C454.355 55.7917 511.327 0 581.526 0Z" fill="#FFFFFB"/>
<path d="M729.53 200.441L696.227 195.153L715.323 79.8193C717.998 63.6608 733.561 52.7055 750.024 55.3195L753.468 55.8664C767.168 58.0417 776.452 70.6983 774.237 84.0773L758.338 180.102C756.116 193.518 743.192 202.61 729.53 200.441Z" fill="#FFFFFB"/>
<path d="M1084.38 823.21C1084.38 823.21 1106.08 821.295 1084.38 976.844C1062.68 1132.39 986.5 1166.26 986.5 1166.26L977.107 1205.87L1010.5 1219.65L970.053 1300.56L986.462 1347.04L1027.18 1326.39C1027.18 1326.39 1110.68 1104.27 1138.82 997.531C1166.96 890.791 1166.96 782.323 1166.96 782.323L1146.68 590.582L1084.34 823.285L1084.38 823.21Z" fill="#FFFFFB"/>
<path d="M88.6395 424.821C88.6395 424.821 -28.6011 631.919 6.5941 932.053C41.7893 1232.19 113.828 1326.35 113.828 1326.35H175.362L154.276 1283.32L119.119 1197.23L147.26 1212.74L161.33 1204.14L154.314 1159.39C154.314 1159.39 78.1346 1052.05 66.4029 982.025C54.6712 912.004 91.0165 806.653 91.0165 806.653L88.7162 424.858L88.6395 424.821Z" fill="#FFFFFB"/>
<path d="M1149.44 636.799C1149.44 377.214 898.512 166.737 589.002 166.737C279.491 166.737 28.5625 377.176 28.5625 636.799C28.5625 766.442 91.17 883.845 192.385 968.884L327.76 1095.64H467.045C506.304 1102.96 547.097 1106.82 589.002 1106.82C630.906 1106.82 671.699 1102.96 710.958 1095.64H862.282L986.538 968.884H985.657C1086.87 883.845 1149.48 766.442 1149.48 636.799H1149.44Z" fill="#FFFFFB"/>
<path d="M504.81 288.12L612.274 424.821L577.462 536.067L679.98 663.456L606.715 856.325L602.306 1000.95L589.424 968.884L592.414 789.157L658.894 677.235L553.96 529.158L604.951 434.47L504.81 288.12Z" fill="#03031F"/>
<path d="M584.171 562.761L506.074 673.781L570.1 754.728L534.062 684.143L602.305 580.82L584.171 562.761Z" fill="#03031F"/>
<path d="M634.817 558.631C655.927 558.631 673.041 541.872 673.041 521.199C673.041 500.525 655.927 483.766 634.817 483.766C613.706 483.766 596.593 500.525 596.593 521.199C596.593 541.872 613.706 558.631 634.817 558.631Z" fill="#F4C916"/>
<path d="M185.292 962.802L337.114 974.629L211.171 986.493L185.292 962.802Z" fill="#03031F"/>
<path d="M970.551 985.592H914.652L962.154 994.152L970.551 985.592Z" fill="#03031F"/>
<path d="M67.8986 902.768L61.0742 773.651L64.4864 658.726L76.3331 819.005L87.6815 851.143L67.8986 902.768Z" fill="#03031F"/>
<path d="M1054.13 899.088L1080.85 842.095L1092.28 783.563L1089.63 742.226L1092.28 849.416L1073.18 891.429L1054.13 899.088Z" fill="#03031F"/>
<path d="M409.805 1080.73L516.464 1403.28L602.305 1404.48V1089.97L409.805 1080.73Z" fill="#FFFFFB"/>
<path d="M794.843 1080.73L688.184 1403.28L602.305 1404.48V1089.97L794.843 1080.73Z" fill="#FFFFFB"/>
<path d="M522.176 1393.07L475.135 1489.07L397.345 1510.17V1536H612.273V1404.37L522.176 1393.07Z" fill="#FFFFFB"/>
<path d="M688.107 1393.07L735.149 1489.07L812.939 1510.17V1536H598.011V1404.37L688.107 1393.07Z" fill="#FFFFFB"/>
<path d="M553.959 1095.64H636.004L602.304 1196.67L598.01 1114H553.959V1095.64Z" fill="#03031F"/>
<path d="M612.273 1484.75L630.178 1536H583.289L612.273 1484.75Z" fill="#03031F"/>
<path d="M507.531 137.377V153.596H541.96V142.333L507.531 137.377Z" fill="#F4C916"/>
<path d="M631.175 142.333V154.46H664.376V145.411L631.175 142.333Z" fill="#F4C916"/>
<path d="M549.858 142.333L555.456 159.266L537.551 162.72L524.171 181.943L531.417 203.456L571.558 215.207L589.002 204.62L572.708 207.473L537.551 198.875L531.992 183.369L539.89 166.737L564.082 163.17L567.456 143.759L549.858 142.333Z" fill="#03031F"/>
<path d="M604.95 133.735L614.343 144.36L670.625 146.651L686.459 138.053L696.274 123.41L687.609 121.383L679.98 135.462C679.98 135.462 665.027 141.507 665.334 140.343C665.641 139.179 604.95 133.735 604.95 133.735Z" fill="#03031F"/>
<path d="M480.848 111.621L509.87 139.592L541.5 149.504L567.417 145.637C567.417 145.637 567.417 136.588 565.653 136.588C563.89 136.588 524.899 135.312 524.899 135.312L488.746 108.617L480.848 111.621Z" fill="#03031F"/>
<path d="M356.476 201.053L349.421 797.755L341.523 985.592L381.089 989.872V370.193L389.064 197.524L356.476 201.053Z" fill="#F4C916"/>
<path d="M813.591 197.712L852.773 219.488L862.243 562.761V1000.95L822.409 1006.09L831.763 590.507L813.591 197.712Z" fill="#F4C916"/>
</g>
<defs>
<clipPath id="clip0_858_388">
<rect width="1167" height="1536" fill="white"/>
</clipPath>
</defs>
</svg>
