<svg width="1309" height="1771" viewBox="0 0 1309 1771" fill="none" xmlns="http://www.w3.org/2000/svg">
<path d="M51.5128 299.76L15.8535 489.904V606.754L85.185 721.639L505.17 751.354L800.336 598.85C800.336 598.85 758.737 503.768 758.737 509.728C758.737 515.688 809.58 187.876 809.58 187.876L51.5128 299.76Z" fill="white"/>
<path d="M0 271.535H37.1496L0 518.128V662.21L71.3186 763.231L123.328 978.641L184.236 1051.42L337.262 913.273L372.921 784.027L365.491 751.354L408.084 757.292L364.023 920.702L219.701 1104.91H161.946L127.777 1063.31L0 1052.91V271.535Z" fill="#0707D9"/>
<path d="M695.95 39.0869L932.39 0L977.142 15.8507L987.034 32.3708L983.903 209.968H727.635L695.95 39.0869Z" fill="#FFFFFB"/>
<path d="M1152.29 95.0824L983.902 32.3706V209.968L1019.56 204.677L1113.99 233.722L1152.29 95.0824Z" fill="#FFFFFB"/>
<path d="M1308.14 149.891L1302.18 216.576L1220.3 263.437L1110.04 233.722L1152.28 95.0825L1308.14 149.891Z" fill="#FFFFFB"/>
<path d="M1176.74 138.337L1179.2 170.514L1253 183.881L1283.69 180.923L1259.44 179.929L1187.12 167.296L1179.69 135.854L1176.74 138.337Z" fill="#03031F"/>
<path d="M1084.27 225.97L1119.93 188.179L1128.53 110.372L1117.3 82.8601L1133.15 74.6108L1148.33 89.1443L1156.91 171.68L1127.21 246.528L1084.27 225.97Z" fill="#0707D9"/>
<path d="M1152.29 895.932C1152.95 884.055 1125.2 655.278 1125.2 655.278C1125.2 655.278 1122.89 414.623 1120.58 410.671C1118.27 406.719 1110.02 233.722 1110.02 233.722L1127.19 246.506L1136.11 434.426L1138.09 665.168L1161.87 895.91H1152.31L1152.29 895.932Z" fill="#0707D9"/>
<path d="M1275.96 922.861C1276.63 910.984 1238.64 621.611 1238.64 621.611C1238.64 621.611 1171.29 366.661 1168.98 362.709C1166.67 358.757 1115.5 231.412 1115.5 231.412L1128.87 239.51L1184.51 386.485L1245.59 616.99L1285.55 922.861H1275.98H1275.96Z" fill="#0707D9"/>
<path d="M1199.85 898.588C1196.54 895.284 1160.23 886.711 1160.23 886.711L1123.26 901.244L1103.45 927.655L1110.71 946.81L1120.04 947.976L1120.62 938.906L1119.05 926.186L1127.88 909.839L1162.87 895.975L1186.65 905.218L1199.85 898.61V898.588Z" fill="#0707D9"/>
<path d="M1190.6 893.621L1131.16 968.232L1124.55 1010.49L1228.23 1065.95L1265.46 1051.42L1258.62 979.785L1226.91 906.168L1190.6 893.621Z" fill="#0707D9"/>
<path d="M1132 1014.49L1122.24 1071.74L1129.67 1137.58L1147.51 1173.73L1161.88 1178.67L1167.32 1167.79L1151.64 1131.64L1144.79 1073.21L1155.46 1027.03L1132 1014.49Z" fill="#0707D9"/>
<path d="M1195.01 1045.48L1197.53 1093.03L1195.01 1140.56L1185.63 1178.68L1191.57 1189.58L1199.85 1185.61L1208.92 1145.01V1101.93V1055.63L1195.01 1045.48Z" fill="#0707D9"/>
<path d="M1219.65 913.727C1222.96 910.423 1251.19 914.18 1251.19 914.18L1283.99 920.659L1307.97 955.124L1300.71 974.279L1291.38 975.445L1290.8 966.375L1292.37 953.656L1279.37 929.275L1248.55 923.466L1232.87 920.378L1219.67 913.77L1219.65 913.727Z" fill="#0707D9"/>
<path d="M1185.63 895.932L1182.67 869.521L1195.01 844.449L1223.22 837.172L1252.65 855.657V886.689L1229.8 912.905L1185.63 895.932Z" fill="#0707D9"/>
<path d="M1206.82 860.904L1203.47 864.748L1204.08 870.19L1209.05 867.599V862.027L1206.82 860.904Z" fill="#FFFFFB"/>
<path d="M1228.18 868.895L1224.83 872.738L1225.44 878.18L1230.41 875.567V869.996L1228.18 868.895Z" fill="#FFFFFB"/>
<path d="M627.31 684.15L603.228 733.516L754.115 796.897L872.972 674.108L800.336 598.828L627.31 684.15Z" fill="#FFFFFB"/>
<path d="M754.115 796.898L829.386 903.188L952.218 927.612C952.218 927.612 1040.71 919.687 1040.71 914.417C1040.71 909.148 1065.8 870.191 1065.8 870.191L1055.24 800.202L945.63 738.397L872.994 674.087L754.137 796.898H754.115Z" fill="#FFFFFB"/>
<path d="M436.811 110.933L565.581 32.3706L853.815 47.2064L766.664 220.053L436.811 110.933Z" fill="#FFFFFB"/>
<path d="M753.705 215.755L818.652 287.386L977.143 225.97L853.815 47.2065L753.705 215.755Z" fill="white"/>
<path d="M818.653 287.386V392.856L865.414 442.373C865.414 442.373 948.395 458.224 946.408 459.217C944.421 460.21 987.014 440.408 987.014 440.408L977.1 225.991L818.609 287.386" fill="#FFFFFB"/>
<path d="M939.043 331.569L874.614 338.868L869.797 384.8L887.487 411.902L922.412 416.977L920.338 420.583L882.713 413.155L863.404 384.433L865.435 331.439L939.172 328.61L939.043 331.569Z" fill="#03031F"/>
<path d="M965.631 210.874C965.631 210.874 887.509 96.054 888.783 97.8679C890.057 99.6819 984.81 212.818 984.81 212.818L965.652 210.853L965.631 210.874Z" fill="#03031F"/>
<path d="M736.621 32.3706L823.124 41.7645L870.813 71.8462L863.405 43.7512L803.706 17.0166L736.621 32.3706Z" fill="#03031F"/>
<path d="M794.549 284.492L745.844 205.67L800.575 237.609L818.653 287.386L794.549 284.492Z" fill="#03031F"/>
<path d="M528.799 1521.41L521.499 1390.11L550.225 1336.15L586.381 1295.55V1267.32H603.228L615.928 1287.12L602.235 1321.78L558.173 1373.81L555.668 1437.66L583.401 1480.25L528.799 1521.41Z" fill="#0707D9"/>
<path d="M571.521 1478.76L528.929 1515.41L515.062 1606.51V1638.22L591.327 1660L686.426 1642.19L676.512 1582.76C676.512 1582.76 671.069 1523.33 670.572 1520.87C670.076 1518.41 625.496 1475.8 625.496 1475.8L571.521 1478.78V1478.76Z" fill="#0707D9"/>
<path d="M632.105 1488.32L670.249 1465.05L680.162 1401.95L667.29 1368.99L661.847 1316L674.223 1298.18L691.07 1294.23L701.955 1305.61L694.029 1327.9C694.029 1327.9 689.579 1342.26 691.048 1344.24C692.517 1346.23 694.029 1393.76 694.029 1393.76L698.608 1460.12L682.625 1491.82L667.03 1521.54L632.105 1488.37V1488.32Z" fill="#0707D9"/>
<path d="M515.062 1625.5V1679.63L531.564 1746.32L564.588 1770.74L589.016 1760.83C589.016 1760.83 588.347 1703.39 589.016 1698.12C589.686 1692.85 589.016 1641.35 589.016 1641.35L515.062 1625.5Z" fill="#0707D9"/>
<path d="M593.638 1649.25L618.735 1742.35L639.211 1760.16L674.2 1755.54L684.114 1698.1C684.114 1698.1 690.227 1638 685.518 1636.68C680.81 1635.37 593.659 1649.25 593.659 1649.25H593.638Z" fill="#0707D9"/>
<path d="M792.733 395.015L818.652 321.549V338.868L801.934 423.542L792.733 395.015Z" fill="#0707D9"/>
<path d="M672.062 1310.4H690.875L766.081 568.66L754.116 577.147L672.062 1310.4Z" fill="#0707D9"/>
<path d="M751.308 568.66L660.183 1000.93L626.187 1189.17L603.228 1278.55L611.845 1297.45L766.081 568.66H751.308Z" fill="#0707D9"/>
<path d="M796.362 297.535L794.548 284.492L835.996 220.052L944.852 176.949L950.727 185.392L954.68 191.137L847.875 232.901L809.58 287.385L818.652 299.284V318.331L796.362 297.535Z" fill="#0707D9"/>
<path d="M828.068 536.764L810.249 561.858L788.802 565.227L742.883 572.418L705.194 549.916L651.089 517.61L553.896 307.836L542.794 283.909L543.571 280.886L576.034 152.784L581.995 129.289L582.773 126.222L585.019 117.347L585.71 114.626H645.15L668.347 139.806L724.395 200.704L765.476 317.532L792.733 395.015L792.755 395.037L800.336 416.61L808.586 452.328V452.35L828.068 536.764Z" fill="#FFFFFB"/>
<path d="M318.946 165.72L422.62 110.912L596.942 114.863L542.794 283.887L442.102 329.129C442.102 329.129 349.983 263.415 348.666 258.125C347.348 252.834 318.946 165.698 318.946 165.698V165.72Z" fill="white"/>
<path d="M457.955 95.0825L488.646 114.626L591.002 117.541L579.123 133.046L449.034 119.506L436.81 110.933L457.955 95.0825Z" fill="#03031F"/>
<path d="M582.773 126.201L553.701 153.907L555.019 174.962L596.942 130.736L651.089 134.688L678.174 159.133L652.407 108.623L592.989 110.933L582.773 126.201Z" fill="#03031F"/>
<path d="M469.51 304.705L539.835 274.99L567.071 318.072L542.794 299.263L515.558 342.604L507.135 305.202L469.51 304.705Z" fill="#03031F"/>
<path d="M828.069 536.764L810.25 561.858L788.802 565.227L738.089 576.046L705.194 549.916L660.183 514.154L738.089 547.821L800.833 538.406L808.587 452.35L828.069 536.764Z" fill="#03031F"/>
<path d="M739.406 261.126L783.338 356.188L792.755 395.058L753.705 342.604L739.406 261.126Z" fill="#03031F"/>
<path d="M766.08 424.535L704.243 420.584L678.001 434.448L694.351 415.617L754.114 412.658L766.08 424.535Z" fill="#03031F"/>
<path d="M204.042 448.312L270.069 318.893L349.163 232.902L319.443 155.656L264.475 146.738L212.465 157.147L51.5127 299.76L57.9275 415.466L204.042 448.312Z" fill="white"/>
<path d="M230.198 336.968L300.135 415.617L421.951 515.148L481.39 525.557L548.238 495.842L557.158 448.312L424.564 310.989L349.163 232.902L270.415 240.331L230.198 336.968Z" fill="white"/>
<path d="M131.729 475.37L225.835 457.209L219.225 424.19L254.561 379.208L200.327 418.209L175.315 397.456L200.327 434.426C200.327 434.426 202.227 453.905 200.327 454.553C198.426 455.201 131.729 475.349 131.729 475.349V475.37Z" fill="#03031F"/>
<path d="M230.198 271.535L256.548 323.018L262.488 379.229L303.309 418.23L256.548 383.937L242.79 351.134L214.949 353.229L234.258 334.42L218.902 297.535L217.411 271.535H230.198Z" fill="#03031F"/>
<path d="M303.31 153.043L338.105 186.192L346.356 222.838C346.356 222.838 346.68 184.874 346.356 183.557C346.032 182.24 324.908 149.545 324.908 149.545L303.31 153.043Z" fill="#03031F"/>
<path d="M387.609 287.386L452.988 344.872L485.343 367.589L516.077 405.769L531.564 452.35L542.795 501.133L538.842 435.095L521.671 394.259L369.79 252.877L387.609 287.386Z" fill="#03031F"/>
<path d="M342.229 448.312L423.44 506.251L481.389 525.557L531.412 511.693L539.122 485.109L534.371 448.312L545.278 501.133L540.807 514.198L486.832 535.944L418.991 514.198L342.229 448.312Z" fill="#03031F"/>
<path d="M428.387 448.312L452.167 478.501L492.772 472.066L510.116 469.604H479.899L456.292 475.37L428.387 448.312Z" fill="#03031F"/>
<path d="M466.529 338.868C464.542 338.371 376.398 395.058 376.398 395.058L365.167 468.006L377.111 478.523L356.593 480.509L332.812 454.768V379.251L424.434 333.448L451.583 326.688L456.292 333.426L351.128 386.938L342.208 437.946L354.584 452.393L361.517 395.101L454.953 331.655L466.508 338.911L466.529 338.868Z" fill="#0707D9"/>
<path d="M337.111 456.237L298.558 995.96L302.273 1131.14L326.161 1148.98L305.988 976.654L365.168 468.007L337.111 456.237Z" fill="#0707D9"/>
<path d="M487.826 1129.65C487.826 1129.65 477.416 996.953 477.416 992.98C477.416 989.006 456.292 893.621 456.292 893.621V678.06L434.823 517.394L444.78 519.143L462.556 666.183L466.508 912.905L488.301 1000.93L496.725 1133.63L487.805 1129.68L487.826 1129.65Z" fill="#0707D9"/>
<path d="M348.321 1214.82L322.165 1163.34L286.009 1138.57L258.19 1154.42L240.371 1155.42L246.311 1135.12L283.288 1117.28L321.582 1135.12L364.174 1198L348.321 1214.82Z" fill="#0707D9"/>
<path d="M353.375 1197.25L325.793 1260.39L312.424 1327.23V1371.8L447.631 1368.34L424.348 1279.2L409.942 1201.95L391.172 1186.1L353.375 1197.25Z" fill="#0707D9"/>
<path d="M413.527 1214.82L439.705 1163.34L475.861 1138.57L503.68 1154.42L521.498 1155.42L515.559 1135.12L478.582 1117.28L440.288 1135.12L397.695 1198L413.527 1214.82Z" fill="#0707D9"/>
<path d="M319.443 1367.85L316.959 1413.41L331.862 1481.74L348.666 1490.16C348.666 1490.16 359.551 1480.75 358.083 1476.3C356.614 1471.85 343.223 1415.4 343.223 1413.91C343.223 1412.42 354.627 1370.74 354.627 1370.74L319.443 1367.87V1367.85Z" fill="#0707D9"/>
<path d="M380.027 1367.85L393.224 1411.43L421.95 1458.96L443.743 1471.83L459.597 1473.81V1452.02C459.597 1452.02 444.24 1420.32 444.24 1416.87C444.24 1413.41 428.387 1367.85 428.387 1367.85H380.027Z" fill="#0707D9"/>
<path d="M347.349 1181.48C347.349 1181.48 337.78 1170.25 337.435 1169.26C337.089 1168.27 344.368 1143.17 344.368 1143.17L370.783 1128.64L393.57 1131.62L410.74 1150.43L419.661 1171.89L399.876 1200.27L362.23 1205.24L347.37 1181.46L347.349 1181.48Z" fill="#0707D9"/>
<path d="M363.656 1163.49L350.113 1168.53L353.742 1173.41L359.357 1176.36L366.291 1165.8L363.656 1163.49Z" fill="#FFFFFB"/>
<path d="M382.079 1165.24L395.622 1170.27L391.993 1175.16L386.378 1178.11L379.444 1167.55L382.079 1165.24Z" fill="#FFFFFB"/>
<path d="M577.46 1473.81L568.713 1438.89L573.097 1391.86L595.042 1365.86L626.986 1359.42L672.062 1397.54L669.578 1447.06L647.051 1472.06L627.979 1486.42L582.925 1482.97L577.46 1473.81Z" fill="#0707D9"/>
<path d="M610.895 1386.66C610.657 1385.66 600.744 1380.46 600.744 1380.46L596.035 1394.34L597.763 1412.14L603.465 1410.65L610.895 1386.63V1386.66Z" fill="#FFFFFB"/>
<path d="M652.753 1392.27C652.516 1391.28 642.602 1386.07 642.602 1386.07L637.894 1399.96L639.621 1417.75L645.323 1416.26L652.753 1392.25V1392.27Z" fill="#FFFFFB"/>
</svg>
