<svg width="147" height="73" viewBox="0 0 147 73" fill="none" xmlns="http://www.w3.org/2000/svg">
<g clip-path="url(#clip0_809_180)">
<path d="M145.508 0.129609L112.985 46.6026" stroke="#0707D9" stroke-width="0.402346" stroke-miterlimit="10"/>
<path d="M145.508 0.129478L94.8556 45.0332" stroke="#0707D9" stroke-width="0.402346" stroke-miterlimit="10"/>
<path d="M47.1428 46.728L0.137207 0.984625L33.755 46.2357" stroke="#0707D9" stroke-width="0.402346" stroke-miterlimit="10"/>
<path d="M11.9084 45.8381L22.4705 45.3374C22.6983 45.3259 22.9262 45.3212 23.1473 45.3198C29.5113 45.2824 33.8022 49.027 34.0814 54.8586C34.2133 57.6317 33.2554 60.1698 31.3886 61.9994C29.4676 63.8837 26.7085 64.9605 23.4066 65.1159L21.8287 65.1898L22.1314 71.5413L13.1438 71.9681L11.905 45.8381L11.9084 45.8381ZM21.4903 57.958L22.8131 57.8959C23.4388 57.865 23.9578 57.624 24.3158 57.1936C24.6975 56.7324 24.8807 56.0753 24.8455 55.297C24.7755 53.8086 23.947 52.8922 22.6885 52.8996C22.651 52.8998 22.617 52.9 22.5796 52.9003L21.2568 52.9624L21.4937 57.958L21.4903 57.958Z" fill="#EFEFEF"/>
<path d="M23.1547 45.9996C29.2636 45.9636 33.1526 49.612 33.4047 54.8897C33.6532 60.1299 29.8603 64.1295 23.3788 64.4361L21.1209 64.5446L21.4236 70.8961L13.7961 71.2571L12.6232 46.483L22.5085 46.0136C22.7262 46.0021 22.9438 45.9974 23.1581 45.9961M20.8448 58.6688L22.8478 58.5754C24.5004 58.4977 25.6189 57.2334 25.5257 55.2657C25.4362 53.3525 24.2662 52.2104 22.6845 52.2197C22.6403 52.2199 22.5927 52.2202 22.5451 52.2205L20.5421 52.3139L20.8448 58.6654M23.1468 44.6399C22.9155 44.6412 22.6774 44.6461 22.4393 44.6576L12.554 45.1271L11.1938 45.1929L11.2596 46.5522L12.4326 71.3263L12.4984 72.6857L13.8586 72.6199L21.486 72.2589L22.8462 72.1931L22.7804 70.8338L22.5435 65.8416L23.4413 65.7989C26.9132 65.6357 29.825 64.49 31.8677 62.4894C33.8766 60.5196 34.9049 57.8009 34.7616 54.8307C34.4704 48.6967 29.8033 44.6041 23.1468 44.6433L23.1468 44.6399ZM21.9648 53.6108L22.6075 53.5799C22.6347 53.5797 22.6619 53.5795 22.6891 53.5794C23.9442 53.572 24.1385 54.8014 24.162 55.3282C24.1894 55.9365 24.0631 56.4301 23.7895 56.7581C23.5564 57.0416 23.2138 57.1932 22.7785 57.2127L22.1358 57.2437L21.9648 53.6074L21.9648 53.6108Z" fill="#0707D9"/>
<path d="M43.4835 71.7617C43.2828 71.7629 43.0787 71.7641 42.8712 71.7551C35.8699 71.5753 32.1089 67.7019 32.2862 60.8478L32.6931 45.008L41.688 45.2372L41.2978 60.4413C41.276 61.3558 41.4571 62.0754 41.8304 62.5185C42.1524 62.9007 42.6298 63.1053 43.2558 63.1186L43.3476 63.1181C44.63 63.1105 45.3018 62.2465 45.3462 60.5432L45.7364 45.3392L54.4115 45.5635L54.0046 61.4033C53.83 68.1384 50.1944 71.7188 43.4835 71.7583L43.4835 71.7617Z" fill="#EFEFEF"/>
<path d="M33.3575 45.7047L40.9916 45.9012L40.6179 60.4286C40.5599 62.7167 41.6477 63.7641 43.2365 63.8023C43.2739 63.8021 43.3147 63.8019 43.3521 63.8017C44.8827 63.7927 45.9687 62.7971 46.027 60.5634L46.4008 46.0359L53.7151 46.2241L53.3247 61.3873C53.1583 67.7994 49.6943 71.0457 43.48 71.0822C43.2861 71.0834 43.0888 71.0845 42.8915 71.0755C36.3086 70.9069 32.7985 67.4772 32.9705 60.8645L33.3609 45.7013M32.0329 44.3086L31.9967 45.6685L31.6063 60.8318C31.4179 68.1244 35.4117 72.2447 42.8518 72.4355C43.0662 72.441 43.2771 72.4432 43.4846 72.4419C50.522 72.4005 54.4992 68.4883 54.6787 61.4235L55.0691 46.2603L55.1053 44.9003L53.7445 44.8642L46.4302 44.676L45.0694 44.6398L45.0332 45.9998L44.6594 60.5272C44.6094 62.4311 43.7523 62.4362 43.3373 62.4386C43.3135 62.4388 43.2897 62.4389 43.2659 62.4391C42.6331 62.4224 42.4173 62.1653 42.3453 62.0807C42.085 61.7695 41.9524 61.1958 41.9718 60.4581L42.3456 45.9306L42.3818 44.5707L41.021 44.5345L33.3869 44.338L32.0261 44.3018L32.0329 44.3086Z" fill="#0707D9"/>
<path d="M52.5961 45.7038L63.1248 44.7172C63.5939 44.6737 64.0598 44.6506 64.5156 44.6479C70.4646 44.6129 74.6455 48.1644 75.1644 53.692C75.7088 59.4948 71.6149 63.8088 64.9755 64.4326L63.4049 64.5812L64 70.914L55.0419 71.7519L52.5962 45.7072L52.5961 45.7038ZM62.7264 57.3684L64.0454 57.2451C64.6709 57.187 65.1796 56.9189 65.5137 56.475C65.8749 55.997 66.0274 55.3332 65.9548 54.5552C65.8205 53.1079 65.0161 52.2492 63.8052 52.2563C63.7303 52.2568 63.6555 52.2572 63.5773 52.2679L62.2583 52.3912L62.7264 57.3684Z" fill="#EFEFEF"/>
<path d="M64.5195 45.3274C70.2406 45.2938 74.0124 48.6947 74.4878 53.7569C74.9777 58.9788 71.3763 63.1505 64.9136 63.7562L62.663 63.9666L63.2581 70.2994L55.6566 71.0138L53.3378 46.3212L63.1899 45.3964C63.6454 45.353 64.0875 45.3334 64.5195 45.3274ZM62.1116 58.1094L64.1071 57.9209C65.7559 57.765 66.8129 56.4535 66.6279 54.4898C66.4537 52.6416 65.3045 51.564 63.7977 51.5728C63.7024 51.5734 63.6072 51.5773 63.512 51.5881L61.5165 51.7766L62.1116 58.1094ZM64.5115 43.9678C64.0353 43.9706 63.549 43.9938 63.0595 44.0409L53.2074 44.9657L51.8543 45.0926L51.9813 46.4448L54.3001 71.1373L54.4271 72.4895L55.7802 72.3626L63.3817 71.6482L64.7348 71.5213L64.6078 70.1691L64.1397 65.1919L65.0338 65.1084C68.4946 64.7855 71.3512 63.5076 73.2981 61.4123C75.2112 59.3547 76.1134 56.5892 75.8374 53.63C75.2823 47.7218 70.8346 43.9306 64.5081 43.9678L64.5115 43.9678ZM62.9999 53.0052L63.6425 52.9437C63.7003 52.9399 63.7547 52.9362 63.8091 52.9359C64.9485 52.9292 65.2167 53.9882 65.2782 54.6201C65.3291 55.1637 65.306 56.4454 63.9835 56.5687L63.341 56.6303L62.9999 53.0052Z" fill="#0707D9"/>
<path d="M72.979 71.2968L73.747 45.1481L84.3172 45.4599C90.9819 45.6552 95.34 49.8278 95.1644 55.8422C95.0001 61.4384 90.6446 65.2237 84.3283 65.2608C84.1344 65.262 83.9371 65.2631 83.7364 65.2541L82.1578 65.209L81.9707 71.5668L72.979 71.3036L72.979 71.2968ZM83.6937 58.0036L83.789 58.0031C85.0577 57.9956 85.8753 57.0628 85.921 55.5668C85.9663 54.0267 85.1714 53.0455 83.8446 53.0058L82.5212 52.9659L82.3737 57.9638L83.6971 58.0036L83.6937 58.0036Z" fill="#EFEFEF"/>
<path d="M74.4078 45.8443L84.2976 46.1328C90.7854 46.3224 94.646 50.3483 94.4842 55.8154C94.3339 60.905 90.481 64.5377 84.3245 64.574C84.1374 64.5751 83.9469 64.5762 83.7564 64.5671L81.4974 64.5022L81.3103 70.86L73.6794 70.6364L74.4078 45.8477M83.7932 58.6827C85.3884 58.6733 86.5415 57.5107 86.5982 55.5864C86.6546 53.6145 85.5147 52.3736 83.8612 52.3256L81.8574 52.266L81.6703 58.6238L83.6741 58.6834C83.715 58.6831 83.7524 58.6829 83.7932 58.6827ZM73.0866 44.4481L73.047 45.8081L72.3186 70.5968L72.279 71.9567L73.6398 71.9963L81.2707 72.22L82.6315 72.2596L82.6711 70.8996L82.8186 65.9018L83.7168 65.9271C83.9243 65.9326 84.1284 65.9348 84.3325 65.9336C91.0434 65.8942 95.6694 61.8456 95.8451 55.8549C96.0352 49.4325 91.4102 44.9794 84.3372 44.7729L74.4474 44.4843L73.0866 44.4447L73.0866 44.4481ZM83.0708 57.3034L83.1786 53.6655L83.8216 53.6855C84.2605 53.6999 84.6015 53.8441 84.8413 54.1248C85.1187 54.4495 85.2576 54.9416 85.2408 55.5502C85.2235 56.0806 85.0505 57.319 83.7852 57.3264C83.7614 57.3265 83.7376 57.3267 83.7138 57.3268L83.0708 57.3068L83.0708 57.3034Z" fill="#0707D9"/>
<path d="M92.6917 70.2965L94.0959 44.1747L114.198 45.2496L113.766 53.2779L102.646 52.6805L102.585 53.8638L110.05 54.2618L109.655 61.6542L102.186 61.2528L102.107 62.7524L113.543 63.365L113.114 71.3899L92.6917 70.2965Z" fill="#EFEFEF"/>
<path d="M94.736 44.8878L113.481 45.8925L113.122 52.5607L102.002 51.9666L101.868 54.5067L109.333 54.9081L109.008 60.9404L101.543 60.539L101.389 63.3953L112.825 64.0079L112.467 70.6761L93.4054 69.6562L94.7326 44.8912M93.452 43.4574L93.3783 44.8142L92.0511 69.5792L91.9775 70.9359L93.3351 71.0095L112.396 72.0294L113.754 72.103L113.828 70.7462L114.186 64.0781L114.26 62.7213L112.902 62.6477L102.824 62.1087L102.83 61.9659L108.938 62.2937L110.295 62.3673L110.369 61.0106L110.694 54.9783L110.758 53.7949L113.052 53.9174L114.409 53.991L114.483 52.6342L114.842 45.9661L114.915 44.6093L113.558 44.5357L94.813 43.531L93.4554 43.4574L93.452 43.4574Z" fill="#0707D9"/>
<path d="M118.835 54.0022L112.323 54.4042L111.789 45.7459L133.789 44.3894L134.323 53.0477L127.815 53.4497L128.89 70.9022L119.91 71.4582L118.835 54.0022Z" fill="#EFEFEF"/>
<path d="M133.15 45.1105L133.601 52.4096L127.093 52.8116L128.172 70.2675L120.552 70.7373L119.473 53.2813L112.965 53.6833L112.514 46.3843L133.154 45.1105M134.424 43.6685L133.067 43.7513L112.428 45.025L111.071 45.1078L111.154 46.4636L111.605 53.7627L111.688 55.1186L113.045 55.0358L118.196 54.7166L119.189 70.8133L119.271 72.1691L120.628 72.0863L128.248 71.6166L129.605 71.5338L129.522 70.178L128.529 54.0813L133.681 53.762L135.037 53.6793L134.955 52.3234L134.504 45.0244L134.421 43.6685L134.424 43.6685Z" fill="#0707D9"/>
<path d="M145.509 0.12955L0.137207 0.984625L0.335009 34.6129L145.706 33.7578L145.509 0.12955Z" fill="#DAE8FF"/>
<path d="M11.5317 8.36198L18.0267 8.05862L22.9308 15.4233L27.1266 7.63457L33.6217 7.33122L34.5437 27.0316L28.4771 27.3155L27.9906 16.8824L23.2875 25.1772L23.2365 25.1775L17.7787 17.3606L18.2653 27.7936L12.4537 28.0658L11.5317 8.36537L11.5317 8.36198Z" fill="#0707D9"/>
<path d="M47.386 7.69234L54.7367 27.3719L48.4102 27.4091L47.5096 24.6576L40.7783 24.6972L39.9101 27.4591L33.8387 27.4948L40.9574 7.73016L47.3826 7.69236L47.386 7.69234ZM45.9133 19.8637L44.0845 14.286L42.2942 19.885L45.9133 19.8637Z" fill="#0707D9"/>
<path d="M69.3214 14.4335L63.0604 14.042C63.1319 12.9062 62.4405 12.1794 61.253 12.1048C60.2934 12.0459 59.6296 12.5359 59.5829 13.267C59.5486 13.7975 59.9525 14.2268 61.1787 14.5051L62.8274 14.9136C67.8004 16.0843 69.4568 18.3657 69.2392 21.8478C69.0122 25.483 66.0468 27.9072 60.6194 27.5686C55.141 27.2269 52.3551 24.3165 52.6036 20.3038L58.8646 20.6953C58.7901 21.9059 59.5502 22.7411 60.9861 22.8278C62.2485 22.9054 62.9154 22.3643 62.9685 21.5584C63.0059 20.9769 62.6288 20.4726 61.2529 20.185L59.6011 19.8276C54.598 18.7556 53.107 16.2557 53.309 13.0013C53.5326 9.39336 56.3692 7.03455 61.6707 7.36369C66.9721 7.69284 69.5603 10.516 69.318 14.4267L69.3214 14.4335Z" fill="#0707D9"/>
<path d="M85.336 8.14933L84.911 13.9511L79.7385 13.5736L78.7214 27.442L72.6641 26.9983L73.6812 13.1299L68.5087 12.7524L68.9338 6.95067L85.3361 8.15273L85.336 8.14933Z" fill="#0707D9"/>
<path d="M100.21 7.38217L100.241 12.6917L91.3839 12.7438L91.3958 14.7663L97.3414 14.7314L97.3697 19.5344L91.4241 19.5694L91.4375 21.8435L100.546 21.7899L100.578 27.0994L85.3972 27.1887L85.2812 7.46998L100.21 7.38217Z" fill="#0707D9"/>
<path d="M110.584 7.35521C114.981 7.61829 117.958 10.7621 117.71 14.853C117.571 17.1755 116.34 19.0762 114.449 20.1785L117.856 27.5519L110.786 27.1278L108.005 21.1104L106.944 21.0453L106.593 26.8771L100.533 26.5117L101.72 6.82267L110.584 7.35521ZM108.803 16.7206C110.368 16.8134 111.359 15.9611 111.446 14.4717C111.532 12.9823 110.653 12.0425 109.087 11.9497L107.495 11.8537L107.207 16.6246L108.799 16.7206L108.803 16.7206Z" fill="#0707D9"/>
<path d="M133.568 13.2029L127.301 13.4811C127.25 12.3426 126.487 11.6945 125.297 11.749C124.338 11.7921 123.729 12.3497 123.761 13.0838C123.784 13.614 124.232 13.9989 125.481 14.1479L127.163 14.3759C132.231 15.0124 134.121 17.1054 134.278 20.5888C134.439 24.2251 131.751 26.9536 126.313 27.1929C120.828 27.436 117.748 24.84 117.571 20.8231L123.839 20.5448C123.893 21.7581 124.738 22.5044 126.176 22.4415C127.441 22.3865 128.047 21.7778 128.011 20.969C127.984 20.3879 127.56 19.9247 126.161 19.7867L124.483 19.6096C119.394 19.0753 117.642 16.7503 117.501 13.4912C117.34 9.87863 119.906 7.23247 125.215 6.99729C130.499 6.76225 133.395 9.2913 133.571 13.2063L133.568 13.2029Z" fill="#0707D9"/>
<path d="M0.507324 34.4387L13.1121 46.959" stroke="#0707D9" stroke-width="0.402346" stroke-miterlimit="10"/>
<path d="M132.602 45.6071L145.706 33.7548" stroke="#0707D9" stroke-width="0.402346" stroke-miterlimit="10"/>
</g>
<defs>
<clipPath id="clip0_809_180">
<rect width="145.649" height="72.02" fill="white" transform="translate(0 0.856696) rotate(-0.33701)"/>
</clipPath>
</defs>
</svg>
