<svg width="836" height="413" viewBox="0 0 836 413" fill="none" xmlns="http://www.w3.org/2000/svg">
<path d="M834.401 0.740723L646.334 266.139" stroke="#FFFFFB" stroke-width="1.02228" stroke-miterlimit="10"/>
<path d="M834.401 0.740723L542.432 256.529" stroke="#FFFFFB" stroke-width="1.02228" stroke-miterlimit="10"/>
<path d="M268.778 264.638L0.780212 0.740723L192.026 261.363" stroke="#FFFFFB" stroke-width="1.02228" stroke-miterlimit="10"/>
<path d="M66.7654 258.342L127.348 255.827C128.654 255.769 129.961 255.749 131.229 255.749C167.723 255.749 192.201 277.367 193.606 310.817C194.269 326.724 188.691 341.246 177.924 351.675C166.845 362.415 150.988 368.497 132.048 369.277L122.998 369.647L124.519 406.08L72.9679 408.224L66.7458 258.342H66.7654ZM121.301 328.166L128.889 327.854C132.477 327.698 135.462 326.334 137.529 323.878C139.733 321.246 140.806 317.484 140.63 313.02C140.279 304.482 135.559 299.199 128.342 299.199C128.128 299.199 127.933 299.199 127.718 299.199L120.131 299.511L121.321 328.166H121.301Z" fill="#03031F"/>
<path d="M131.249 259.648C166.279 259.648 188.456 280.7 189.724 310.973C190.973 341.032 169.088 363.839 131.912 365.378L118.96 365.924L120.482 402.357L76.7323 404.17L70.8418 262.065L127.543 259.706C128.791 259.648 130.039 259.628 131.268 259.628M117.576 332.221L129.064 331.753C138.543 331.363 145 324.151 144.531 312.864C144.083 301.889 137.412 295.301 128.342 295.301C128.089 295.301 127.816 295.301 127.543 295.301L116.054 295.769L117.576 332.201M131.249 251.851C129.922 251.851 128.557 251.87 127.192 251.929L70.4907 254.287L62.6888 254.619L63.0204 262.416L68.9109 404.521L69.2424 412.318L77.0444 411.986L120.794 410.174L128.596 409.842L128.264 402.045L127.075 373.41L132.224 373.195C152.138 372.376 168.874 365.905 180.655 354.501C192.24 343.273 198.228 327.718 197.507 310.681C196.044 275.496 169.42 251.87 131.249 251.87V251.851ZM124.168 303.254L127.855 303.098C128.011 303.098 128.167 303.098 128.323 303.098C135.52 303.098 136.593 310.155 136.71 313.176C136.846 316.665 136.105 319.492 134.525 321.363C133.18 322.981 131.21 323.839 128.713 323.936L125.026 324.092L124.168 303.234V303.254Z" fill="#FFFFFB"/>
<path d="M246.952 408.068C245.801 408.068 244.631 408.068 243.441 408.01C203.3 406.743 181.864 384.404 183.112 345.106L185.979 254.287L237.55 255.905L234.8 343.078C234.644 348.322 235.658 352.455 237.784 355.008C239.618 357.211 242.349 358.4 245.937 358.497H246.464C253.817 358.497 257.699 353.566 258.011 343.8L260.761 256.627L310.499 258.205L307.632 349.024C306.403 387.64 285.435 408.049 246.952 408.049V408.068Z" fill="#03031F"/>
<path d="M189.763 258.303L233.532 259.687L230.899 342.981C230.49 356.1 236.692 362.143 245.801 362.415C246.015 362.415 246.25 362.415 246.464 362.415C255.241 362.415 261.502 356.743 261.912 343.936L264.545 260.642L306.481 261.968L303.73 348.907C302.56 385.671 282.587 404.17 246.952 404.17C245.84 404.17 244.709 404.17 243.577 404.111C205.835 402.922 185.823 383.137 187.033 345.223L189.783 258.283M182.215 250.252L181.961 258.049L179.211 344.989C177.885 386.801 200.647 410.563 243.304 411.908C244.533 411.947 245.742 411.967 246.932 411.967C287.288 411.967 310.226 389.667 311.493 349.16L314.244 262.221L314.497 254.424L306.695 254.17L264.76 252.845L256.958 252.591L256.704 260.389L254.071 343.683C253.72 354.599 248.805 354.599 246.425 354.599C246.289 354.599 246.152 354.599 246.015 354.599C242.388 354.482 241.159 353 240.749 352.513C239.267 350.72 238.526 347.425 238.662 343.195L241.295 259.901L241.549 252.104L233.747 251.851L189.978 250.467L182.176 250.213L182.215 250.252Z" fill="#FFFFFB"/>
<path d="M300.083 258.946L360.49 253.644C363.182 253.41 365.854 253.293 368.467 253.293C402.582 253.293 426.436 273.8 429.225 305.515C432.151 338.809 408.531 363.41 370.437 366.762L361.426 367.562L364.625 403.897L313.229 408.4L300.083 258.966V258.946ZM357.779 326.178L365.347 325.515C368.936 325.203 371.861 323.683 373.792 321.149C375.879 318.42 376.777 314.618 376.386 310.155C375.665 301.85 371.081 296.899 364.137 296.899C363.708 296.899 363.279 296.899 362.831 296.958L355.263 297.62L357.779 326.178Z" fill="#03031F"/>
<path d="M368.467 257.192C401.275 257.192 422.789 276.821 425.344 305.866C427.977 335.827 407.185 359.628 370.106 362.883L357.194 364.014L360.392 400.349L316.779 404.189L304.316 262.513L360.841 257.543C363.455 257.309 365.99 257.211 368.467 257.192ZM354.229 330.408L365.678 329.394C375.138 328.556 381.243 321.071 380.248 309.804C379.312 299.199 372.758 292.981 364.118 292.981C363.572 292.981 363.025 293.001 362.479 293.059L351.03 294.073L354.229 330.408ZM368.467 249.395C365.737 249.395 362.947 249.512 360.139 249.765L303.614 254.736L295.851 255.418L296.533 263.176L308.997 404.852L309.68 412.61L317.442 411.928L361.055 408.088L368.818 407.406L368.136 399.647L365.62 371.09L370.749 370.642C390.605 368.907 407.029 361.675 418.263 349.726C429.303 337.991 434.569 322.162 433.087 305.184C430.103 271.285 404.727 249.395 368.448 249.395H368.467ZM359.495 301.168L363.181 300.837C363.513 300.817 363.825 300.798 364.137 300.798C370.671 300.798 372.173 306.88 372.505 310.505C372.778 313.624 372.602 320.973 365.015 321.636L361.329 321.967L359.495 301.168Z" fill="#FFFFFB"/>
<path d="M416.098 406.392L421.384 256.471L481.986 258.615C520.196 259.96 545.045 284.034 543.836 318.517C542.705 350.603 517.602 372.162 481.381 372.162C480.27 372.162 479.138 372.162 477.987 372.104L468.937 371.792L467.65 408.244L416.098 406.431V406.392ZM477.987 330.525H478.534C485.809 330.525 490.529 325.203 490.841 316.626C491.153 307.796 486.628 302.143 479.021 301.87L471.434 301.597L470.42 330.252L478.007 330.525H477.987Z" fill="#03031F"/>
<path d="M425.149 260.486L481.849 262.474C519.045 263.78 541.047 286.997 539.935 318.342C538.901 347.523 516.685 368.224 481.381 368.224C480.309 368.224 479.216 368.224 478.124 368.166L465.173 367.718L463.885 404.17L420.136 402.63L425.149 260.506M478.534 334.423C487.681 334.423 494.333 327.796 494.723 316.763C495.113 305.457 488.618 298.303 479.138 297.971L467.65 297.562L466.362 334.014L477.851 334.423C478.085 334.423 478.299 334.423 478.534 334.423ZM417.62 252.435L417.347 260.233L412.334 402.357L412.061 410.154L419.863 410.427L463.612 411.967L471.414 412.24L471.687 404.443L472.702 375.788L477.851 375.963C479.041 376.002 480.211 376.022 481.381 376.022C519.864 376.022 546.528 352.961 547.737 318.615C549.044 281.792 522.673 256.1 482.122 254.677L425.422 252.689L417.62 252.416V252.435ZM474.438 326.49L475.179 305.632L478.865 305.769C481.381 305.866 483.332 306.704 484.697 308.322C486.277 310.194 487.057 313.02 486.94 316.509C486.823 319.55 485.789 326.646 478.534 326.646C478.397 326.646 478.26 326.646 478.124 326.646L474.438 326.509V326.49Z" fill="#FFFFFB"/>
<path d="M529.168 401.324L538.102 251.578L653.337 258.42L650.586 304.443L586.844 300.642L586.454 307.425L629.248 309.96L626.732 352.338L583.919 349.784L583.411 358.38L648.968 362.279L646.237 408.283L529.168 401.324Z" fill="#03031F"/>
<path d="M541.749 255.691L649.202 262.084L646.92 300.31L583.177 296.529L582.319 311.09L625.113 313.644L623.046 348.224L580.252 345.671L579.276 362.045L644.833 365.944L642.55 404.17L533.284 397.678L541.73 255.71M534.435 247.445L533.967 255.223L525.521 397.191L525.053 404.969L532.835 405.437L642.102 411.928L649.884 412.396L650.352 404.618L652.635 366.392L653.103 358.614L645.32 358.146L587.547 354.716L587.586 353.897L622.597 355.983L630.379 356.451L630.847 348.673L632.915 314.092L633.325 307.308L646.471 308.088L654.253 308.556L654.722 300.778L657.004 262.552L657.472 254.775L649.689 254.307L542.237 247.913L534.454 247.445H534.435Z" fill="#FFFFFB"/>
<path d="M679.629 308.77L642.277 310.856L639.508 261.188L765.705 254.151L768.474 303.819L731.142 305.905L736.72 406.021L685.208 408.906L679.629 308.77Z" fill="#03031F"/>
<path d="M762.018 258.264L764.359 300.135L727.026 302.221L732.624 402.357L688.914 404.793L683.316 304.657L645.983 306.743L643.643 264.872L762.038 258.264M769.371 250.038L761.589 250.467L643.194 257.075L635.412 257.504L635.841 265.281L638.181 307.153L638.61 314.93L646.393 314.501L675.943 312.845L681.092 405.183L681.521 412.961L689.304 412.532L733.014 410.096L740.797 409.667L740.368 401.889L735.218 309.55L764.768 307.893L772.551 307.464L772.122 299.687L769.781 257.816L769.352 250.038H769.371Z" fill="#FFFFFB"/>
<path d="M834.401 0.740723H0.780212V193.586H834.401V0.740723Z" fill="#0707D9"/>
<path d="M65.8681 43.4306L103.122 41.9102L130.995 84.3076L155.318 39.7854L192.572 38.265L197.195 151.266L162.398 152.689L159.96 92.8456L132.711 140.253H132.419L101.387 95.2432L103.825 155.087L70.4908 156.452L65.8681 43.4501V43.4306Z" fill="#FFFFFB"/>
<path d="M271.489 40.799L312.976 153.898H276.697L271.625 138.089H233.025L227.954 153.898H193.138L234.625 40.799H271.469H271.489ZM262.634 110.545L252.335 78.4986L241.88 110.545H262.634Z" fill="#FFFFFB"/>
<path d="M397.042 80.1946L361.153 77.7384C361.602 71.2278 357.662 67.0367 350.854 66.5689C345.354 66.1985 341.531 68.986 341.238 73.1771C341.024 76.218 343.325 78.6936 350.347 80.331L359.788 82.7287C388.265 89.6097 397.686 102.748 396.32 122.709C394.896 143.547 377.81 157.348 346.7 155.223C315.297 153.079 299.42 136.296 300.98 113.294L336.869 115.75C336.401 122.689 340.731 127.504 348.962 128.05C356.199 128.537 360.041 125.458 360.373 120.838C360.607 117.504 358.461 114.6 350.581 112.904L341.121 110.799C312.469 104.483 304.004 90.0971 305.271 71.4422C306.676 50.76 323.021 37.3293 353.41 39.3955C383.798 41.4618 398.544 57.7385 397.023 80.1556L397.042 80.1946Z" fill="#FFFFFB"/>
<path d="M489.086 44.6977L486.452 77.9529L456.805 75.6137L450.505 155.107L415.786 152.358L422.086 72.8652L392.439 70.526L395.072 37.2708L489.086 44.7172V44.6977Z" fill="#FFFFFB"/>
<path d="M574.4 40.799V71.2472H523.609V82.8456H557.704V110.389H523.609V123.43H575.844V153.878H488.793V40.799H574.4Z" fill="#FFFFFB"/>
<path d="M633.89 40.994C659.091 42.6509 676.06 60.7795 674.499 84.2296C673.622 97.5434 666.502 108.401 655.619 114.658L674.909 157.056L634.378 154.385L618.637 119.785L612.552 119.376L610.348 152.806L575.609 150.506L583.08 37.6412L633.89 40.994ZM623.358 94.639C632.33 95.2237 638.045 90.37 638.591 81.832C639.137 73.294 634.124 67.875 625.152 67.2902L616.024 66.6859L614.21 94.0347L623.338 94.639H623.358Z" fill="#FFFFFB"/>
<path d="M765.49 75.3018L729.542 76.6858C729.289 70.1556 724.939 66.413 718.113 66.6859C712.612 66.9003 709.101 70.0777 709.257 74.2882C709.374 77.3291 711.929 79.5513 719.088 80.448L728.723 81.8125C757.766 85.6332 768.533 97.6994 769.313 117.68C770.113 138.537 754.606 154.093 723.418 155.282C691.956 156.491 674.382 141.5 673.505 118.46L709.452 117.076C709.725 124.035 714.543 128.343 722.794 128.031C730.05 127.758 733.541 124.288 733.365 119.649C733.229 116.315 730.81 113.645 722.794 112.807L713.178 111.734C684.018 108.499 674.051 95.1068 673.349 76.4129C672.549 55.6918 687.353 40.6041 717.8 39.4345C748.111 38.265 764.632 52.8653 765.509 75.3213L765.49 75.3018Z" fill="#FFFFFB"/>
<path d="M1.77496 192.592L65.7543 258.414" stroke="#FFFFFB" stroke-width="1.02228" stroke-miterlimit="10"/>
<path d="M758.858 261.09L834.401 193.566" stroke="#FFFFFB" stroke-width="1.02228" stroke-miterlimit="10"/>
</svg>
