<svg width="373" height="190" viewBox="0 0 373 190" fill="none" xmlns="http://www.w3.org/2000/svg">
<path d="M367.757 137.494L345.118 138.365C344.957 134.256 342.216 131.898 337.929 132.059C334.462 132.191 332.249 134.198 332.351 136.842C332.425 138.761 334.037 140.16 338.537 140.716L344.605 141.58C362.898 143.983 369.677 151.578 370.16 164.176C370.666 177.316 360.897 187.101 341.263 187.855C321.454 188.617 310.387 179.176 309.83 164.667L332.469 163.795C332.637 168.175 335.671 170.892 340.875 170.695C345.441 170.519 347.639 168.329 347.529 165.414C347.449 163.312 345.917 161.634 340.867 161.1L334.807 160.419C316.441 158.382 310.175 149.945 309.72 138.175C309.214 125.13 318.544 115.631 337.716 114.891C356.8 114.158 367.207 123.35 367.757 137.494Z" fill="#03031F" stroke="#FFFFFB" stroke-width="3" stroke-miterlimit="10"/>
<path d="M1.53174 119.886L28.2524 118.78C28.8313 118.758 29.4103 118.743 29.9746 118.743C46.0759 118.743 56.8711 128.272 57.4867 143.016C57.7799 150.025 55.3248 156.412 50.5831 161.012C45.6948 165.743 38.6958 168.431 30.3264 168.776L26.0244 168.951L26.6987 185.182L4.28002 186.112L1.53174 119.886ZM25.2769 151.014L28.9266 150.86C32.481 150.714 34.5844 148.07 34.4158 143.968C34.2546 140.006 32.0486 137.552 28.6701 137.552C28.5748 137.552 28.4795 137.552 28.3769 137.552L24.7272 137.706L25.2769 151.007V151.014Z" fill="#03031F"/>
<path d="M29.9673 120.208C45.5775 120.208 55.4566 129.591 56.0136 143.075C56.5706 156.463 46.8234 166.622 30.2604 167.311L24.4927 167.552L25.1669 183.783L5.67978 184.589L3.05609 121.292L28.311 120.245C28.8679 120.223 29.4249 120.208 29.9746 120.208M23.8771 152.538L28.9925 152.325C33.2139 152.149 36.0941 148.941 35.8816 143.91C35.6764 139.017 32.7155 136.087 28.6701 136.087C28.5528 136.087 28.4355 136.087 28.3183 136.095L23.2028 136.307L23.8771 152.538ZM29.9673 117.279C29.381 117.279 28.78 117.293 28.1864 117.315L2.9315 118.362L0 118.487L0.124587 121.417L2.74828 184.713L2.87287 187.643L5.80437 187.518L25.2915 186.713L28.223 186.588L28.0984 183.658L27.5488 170.358L30.385 170.24C39.1135 169.882 46.4496 167.054 51.6017 162.066C56.6439 157.181 59.2529 150.392 58.9451 142.957C58.63 135.45 55.7425 129.034 50.5977 124.412C45.4016 119.747 38.2707 117.286 29.9746 117.286L29.9673 117.279ZM26.2516 139.112L28.4355 139.024C28.5162 139.024 28.5894 139.024 28.6701 139.024C31.2571 139.024 32.8181 140.855 32.9501 144.041C33.0233 145.733 32.6422 147.125 31.8507 148.062C31.1472 148.897 30.1431 149.352 28.8679 149.403L26.684 149.491L26.2516 139.112Z" fill="#FFFFFB"/>
<path d="M81.5029 186.054C80.9899 186.054 80.4769 186.046 79.9492 186.032C61.9865 185.468 52.7816 175.873 53.3386 158.295L54.6064 118.106L77.0324 118.817L75.8158 157.379C75.7352 159.818 76.2043 161.664 77.2083 162.872C78.0731 163.92 79.3629 164.476 81.0339 164.527C81.1145 164.527 81.2025 164.527 81.2831 164.527C84.7349 164.527 86.5524 162.235 86.699 157.716L87.9156 119.154L109.528 119.835L108.26 160.023C107.725 177.052 98.469 186.054 81.5029 186.054Z" fill="#03031F"/>
<path d="M56.0356 119.608L75.53 120.223L74.3574 157.32C74.1742 163.165 76.9371 165.853 80.9973 165.978C81.0925 165.978 81.1952 165.978 81.2904 165.978C85.1967 165.978 87.9889 163.451 88.1648 157.745L89.3374 120.648L108.018 121.241L106.794 159.964C106.274 176.334 97.377 184.574 81.503 184.574C81.0046 184.574 80.5062 184.567 79.9932 184.552C63.1811 184.025 54.2693 175.206 54.8043 158.324L56.0282 119.6M53.1993 116.59L53.1041 119.52L51.8802 158.243C51.587 167.413 53.9176 174.613 58.7985 179.623C63.5988 184.552 70.7004 187.203 79.9053 187.489C80.4403 187.504 80.9826 187.511 81.503 187.511C99.1433 187.511 109.162 177.762 109.719 160.06L110.943 121.336L111.038 118.406L108.106 118.311L89.4253 117.718L86.4938 117.623L86.3986 120.552L85.226 157.65C85.0574 163.041 82.3091 163.041 81.2758 163.041C81.2098 163.041 81.1439 163.041 81.0779 163.041C79.8906 163.004 77.1057 162.916 77.2743 157.401L78.4469 120.303L78.5422 117.374L75.6107 117.279L56.1162 116.663L53.1847 116.568L53.1993 116.59Z" fill="#FFFFFB"/>
<path d="M105.468 120.15L132.108 117.813C133.295 117.711 134.49 117.652 135.64 117.652C150.686 117.652 161.203 126.69 162.434 140.672C163.724 155.335 153.303 166.183 136.498 167.655L132.211 168.028L133.632 184.208L111.28 186.171L105.475 120.142L105.468 120.15ZM130.628 150.143L134.27 149.82C135.948 149.674 137.311 148.963 138.228 147.769C139.195 146.502 139.613 144.737 139.437 142.679C139.1 138.885 136.908 136.527 133.713 136.527C133.515 136.527 133.317 136.534 133.112 136.556L129.47 136.878L130.635 150.143H130.628Z" fill="#03031F"/>
<path d="M135.633 119.117C150.247 119.117 159.833 127.862 160.969 140.797C162.141 154.149 152.878 164.747 136.359 166.197L130.613 166.703L132.035 182.882L112.606 184.589L107.058 121.483L132.233 119.271C133.391 119.168 134.526 119.117 135.633 119.117ZM129.294 151.732L134.395 151.285C138.609 150.919 141.328 147.579 140.888 142.562C140.47 137.838 137.553 135.069 133.698 135.069C133.456 135.069 133.215 135.077 132.965 135.098L127.865 135.545L129.286 151.725M135.64 116.187C134.446 116.187 133.215 116.246 131.983 116.348L106.809 118.56L103.892 118.817L104.149 121.732L109.697 184.838L109.953 187.753L112.87 187.496L132.299 185.79L135.215 185.534L134.959 182.618L133.794 169.354L136.623 169.105C145.329 168.343 152.526 165.179 157.436 159.957C162.251 154.845 164.545 147.945 163.893 140.533C162.588 125.738 151.5 116.18 135.64 116.18V116.187ZM131.053 138.211L133.229 138.021C133.391 138.006 133.552 137.999 133.706 137.999C136.146 137.999 137.7 139.757 137.971 142.818C138.118 144.503 137.802 145.916 137.062 146.891C136.395 147.762 135.413 148.26 134.145 148.37L131.969 148.561L131.06 138.219L131.053 138.211Z" fill="#FFFFFB"/>
<path d="M157.136 185.314L159.474 119.073L186.194 120.018C194.586 120.311 201.607 123.028 206.51 127.869C211.332 132.63 213.743 139.046 213.486 146.422C212.988 160.558 201.914 170.05 185.938 170.05C185.439 170.05 184.941 170.043 184.435 170.021L180.133 169.867L179.562 186.105L157.143 185.314H157.136ZM184.413 152.054C184.494 152.054 184.582 152.054 184.663 152.054C188.07 152.054 190.269 149.579 190.416 145.601C190.489 143.536 189.976 141.8 188.943 140.584C187.968 139.442 186.568 138.805 184.882 138.746L181.233 138.614L180.764 151.922L184.413 152.054Z" fill="#03031F"/>
<path d="M160.888 120.589L186.15 121.475C202.721 122.061 212.519 132.403 212.028 146.363C211.566 159.357 201.673 168.578 185.945 168.578C185.469 168.578 184.985 168.57 184.494 168.548L178.726 168.343L178.155 184.574L158.66 183.886L160.895 120.574M184.662 153.526C188.73 153.526 191.705 150.575 191.874 145.66C192.05 140.628 189.155 137.435 184.934 137.288L179.818 137.105L179.247 153.336L184.362 153.519C184.465 153.519 184.56 153.519 184.662 153.519M158.059 117.557L157.957 120.487L155.721 183.798L155.619 186.727L158.55 186.83L178.045 187.518L180.976 187.621L181.079 184.691L181.548 171.383L184.384 171.486C184.904 171.5 185.425 171.515 185.938 171.515C202.764 171.515 214.425 161.451 214.952 146.473C215.517 130.396 203.981 119.183 186.245 118.553L160.983 117.667L158.052 117.564L158.059 117.557ZM182.281 150.516L182.647 140.138L184.831 140.218C186.106 140.262 187.11 140.709 187.821 141.544C188.613 142.481 189.008 143.866 188.942 145.558C188.833 148.758 187.264 150.597 184.655 150.597C184.589 150.597 184.523 150.597 184.457 150.597L182.273 150.516H182.281Z" fill="#FFFFFB"/>
<path d="M207.514 183.065L211.449 116.905L262.245 119.923L261.05 139.874L232.658 138.189L232.446 141.749L251.515 142.884L250.423 161.21L231.354 160.074L231.097 164.447L260.303 166.183L259.115 186.134L207.514 183.065Z" fill="#03031F"/>
<path d="M212.827 118.45L260.691 121.3L259.68 138.328L231.288 136.637L230.9 143.126L249.962 144.261L249.046 159.664L229.983 158.529L229.551 165.824L258.756 167.56L257.745 184.589L209.067 181.696L212.834 118.458M210.079 115.352L209.903 118.275L206.136 181.512L205.96 184.435L208.884 184.611L257.562 187.504L260.486 187.68L260.662 184.757L261.673 167.728L261.849 164.806L258.925 164.63L232.644 163.07L232.732 161.62L248.87 162.579L251.794 162.755L251.97 159.833L252.886 144.43L253.062 141.507L250.138 141.331L234 140.372L234.036 139.735L259.504 141.251L262.428 141.427L262.604 138.504L263.615 121.475L263.791 118.553L260.867 118.377L213.003 115.528L210.079 115.352Z" fill="#FFFFFB"/>
<path d="M274.498 141.808L257.862 142.738L256.66 121.16L312.329 118.055L313.531 139.632L296.902 140.555L299.394 185.16L276.99 186.412L274.498 141.808Z" fill="#03031F"/>
<path d="M310.944 119.6L311.985 138.255L295.348 139.185L297.84 183.79L278.368 184.874L275.876 140.269L259.24 141.2L258.199 122.545L310.944 119.6ZM313.707 116.509L310.783 116.671L258.038 119.615L255.114 119.776L255.275 122.698L256.316 141.353L256.477 144.276L259.401 144.115L273.106 143.353L275.436 185.028L275.598 187.951L278.522 187.789L297.994 186.705L300.918 186.544L300.757 183.622L298.427 141.947L312.131 141.185L315.056 141.024L314.894 138.101L313.854 119.446L313.692 116.524L313.707 116.509Z" fill="#FFFFFB"/>
<path d="M372.286 0.375603L288.511 118.597" stroke="#FFFFFB" stroke-miterlimit="10"/>
<path d="M372.286 0.375603L239.445 117.103" stroke="#FFFFFB" stroke-miterlimit="10"/>
<path d="M120.331 117.938L0.945435 0.375603L86.1348 116.48" stroke="#FFFFFB" stroke-miterlimit="10"/>
<path d="M372.286 0.375603H0.945435V86.2748H372.286V0.375603Z" fill="#0707D9"/>
<path d="M29.938 19.3968L46.5376 18.7229L58.9525 37.6123L69.7844 17.7781L86.384 17.1043L88.4361 67.4441L72.9357 68.0739L71.8511 41.4209L59.7147 62.5368H59.5828L45.7608 42.4829L46.8454 69.136L31.99 69.7439L29.938 19.4041V19.3968Z" fill="#EFEFEF"/>
<path d="M121.533 18.2249L140.016 68.6086H123.856L121.591 61.57H104.398L102.134 68.6086H86.6185L105.102 18.2249H121.518H121.533ZM117.59 49.2945L113.002 35.0195L108.348 49.2945H117.59Z" fill="#EFEFEF"/>
<path d="M177.458 35.7739L161.467 34.6825C161.665 31.7821 159.913 29.9144 156.887 29.7093C154.439 29.5409 152.731 30.786 152.607 32.6537C152.511 34.0087 153.537 35.1147 156.667 35.8471L160.866 36.9091C173.552 39.9707 177.752 45.8301 177.143 54.7218C176.513 64.0017 168.898 70.154 155.032 69.2092C141.042 68.2571 133.97 60.779 134.673 50.5323L150.665 51.6236C150.452 54.7145 152.379 56.8531 156.058 57.1095C159.283 57.3292 160.998 55.9596 161.137 53.8941C161.24 52.4146 160.287 51.1182 156.777 50.3565L152.563 49.419C139.796 46.6065 136.022 40.1977 136.593 31.8847C137.224 22.6707 144.494 16.6941 158.037 17.617C171.515 18.5325 178.147 25.7835 177.466 35.7739H177.458Z" fill="#EFEFEF"/>
<path d="M218.463 19.9607L217.29 34.7704L204.084 33.7231L201.277 69.136L185.813 67.9128L188.62 32.4999L175.414 31.4525L176.586 16.6428L218.463 19.9607Z" fill="#EFEFEF"/>
<path d="M256.462 18.2249V31.7894H233.838V36.9531H249.024V49.2286H233.838V55.0441H257.107V68.6086H218.331V18.2249H256.462Z" fill="#EFEFEF"/>
<path d="M282.963 18.3128C294.183 19.0525 301.747 27.1312 301.058 37.5683C300.662 43.4937 297.496 48.335 292.644 51.1256L301.241 70.0149L283.183 68.821L276.169 53.4034L273.465 53.2276L272.483 68.1179L257.005 67.0925L260.332 16.8186L282.97 18.3128H282.963ZM278.273 42.2119C282.274 42.4756 284.81 40.3149 285.059 36.5136C285.308 32.7782 283.073 30.2953 279.079 30.0316L275.019 29.7606L274.213 41.9409L278.273 42.2119Z" fill="#EFEFEF"/>
<path d="M341.586 33.5912L325.572 34.2065C325.462 31.2987 323.52 29.6288 320.486 29.746C318.031 29.8412 316.47 31.2548 316.543 33.1298C316.595 34.4848 317.731 35.4736 320.919 35.8691L325.213 36.4843C338.148 38.1836 342.949 43.5596 343.293 52.4659C343.652 61.7604 336.741 68.6819 322.853 69.2165C308.841 69.7585 301.014 63.0715 300.618 52.8102L316.631 52.1949C316.748 55.2931 318.896 57.212 322.575 57.0729C325.807 56.9484 327.361 55.4029 327.28 53.3375C327.221 51.8507 326.144 50.6641 322.568 50.2833L318.28 49.7999C305.286 48.357 300.852 42.3877 300.537 34.0673C300.178 24.8387 306.781 18.1223 320.34 17.595C333.839 17.075 341.205 23.5789 341.586 33.5839V33.5912Z" fill="#EFEFEF"/>
<path d="M1.38513 85.8427L33.3971 118.011" stroke="#FFFFFB" stroke-miterlimit="10"/>
<path d="M338.632 116.356L372.286 86.2748" stroke="#FFFFFB" stroke-miterlimit="10"/>
<path d="M178.256 98.4811C176.416 98.4811 175.176 99.9211 175.176 102.441C175.176 104.961 176.416 106.401 178.256 106.401C180.076 106.401 181.336 104.961 181.336 102.441C181.336 99.9211 180.076 98.4811 178.256 98.4811ZM178.256 94.5411C182.716 94.5411 185.616 97.4611 185.616 102.441C185.616 107.421 182.716 110.341 178.256 110.341C173.796 110.341 170.896 107.421 170.896 102.441C170.896 97.4611 173.796 94.5411 178.256 94.5411ZM187.376 94.7411H198.916V98.7011H191.516V100.981H196.616V104.941H191.516V110.141H187.376V94.7411Z" fill="#FFFFFB"/>
</svg>
