<svg width="1028" height="1575" viewBox="0 0 1028 1575" fill="none" xmlns="http://www.w3.org/2000/svg">
<g clip-path="url(#clip0_661_549)">
<path d="M329.952 22.0925H511.234L568.179 0L651.625 35.3624V331.64H329.952V22.0925Z" fill="#FFFFFB"/>
<path d="M651.625 172.184C651.625 172.184 682.285 130.747 688.106 129.915C693.927 129.084 731.203 129.915 731.203 129.915V155.623L651.625 223.6V172.184Z" fill="#FFFFFB"/>
<path d="M329.953 172.184C329.953 172.184 299.293 130.747 293.472 129.915C287.651 129.084 250.375 129.915 250.375 129.915V155.623L329.953 223.6V172.184Z" fill="#FFFFFB"/>
<path d="M1007.57 315.477H0L200.625 715.239L278.539 794.605V880.263L520.743 914.215L744.471 880.263V789.868H743.206L800.837 710.249L1007.57 315.477Z" fill="#FFFFFB"/>
<path d="M277.997 310.632L432.09 447.707V425.614L329.952 310.632H277.997Z" fill="#03031F"/>
<path d="M493.735 466.509V594.724L453.747 672.138L493.735 730.569L503.786 883.264L511.234 721.855L473.669 674.886L511.234 609.115V477.573L493.735 466.509Z" fill="#03031F"/>
<path d="M530.577 698.1C548.888 698.1 563.731 683.255 563.731 664.943C563.731 646.631 548.888 631.786 530.577 631.786C512.267 631.786 497.423 646.631 497.423 664.943C497.423 683.255 512.267 698.1 530.577 698.1Z" fill="#EACA40"/>
<path d="M657.012 288.54L576.458 361.47L568.179 391.336L661.568 304.413L657.012 288.54Z" fill="#03031F"/>
<path d="M76.2874 954.025H185.151L258.112 315.477H0L8.27953 573.753L76.2874 954.025Z" fill="#FFFFFB"/>
<path d="M150.875 582.575L204.782 701.137L233.924 749.155L208.904 793.99L174.087 705.295L147.585 603.294L150.875 582.575Z" fill="#03031F"/>
<path d="M95.8838 847.07C114.194 847.07 129.038 832.225 129.038 813.913C129.038 795.601 114.194 780.756 95.8838 780.756C77.5732 780.756 62.7295 795.601 62.7295 813.913C62.7295 832.225 77.5732 847.07 95.8838 847.07Z" fill="#EACA40"/>
<path d="M100.331 924.846C118.642 924.846 133.485 910.001 133.485 891.689C133.485 873.377 118.642 858.532 100.331 858.532C82.0204 858.532 67.1768 873.377 67.1768 891.689C67.1768 910.001 82.0204 924.846 100.331 924.846Z" fill="#EACA40"/>
<path d="M163.06 954.025L191.767 1009.56L171.882 1048.25L163.06 1041.64L170.797 1084.74L137.607 1115.69H121.59L83.4463 1049.37V954.025H163.06Z" fill="#FFFFFB"/>
<path d="M960.028 938.26H830.701L778.204 315.477H1007.57L1028 514.056L960.028 938.26Z" fill="#FFFFFB"/>
<path d="M869.677 558.53L829.87 657.205L786.158 730.569L804.995 726.845L832.907 694.52L864.687 620.722L875.461 563.52L869.677 558.53Z" fill="#03031F"/>
<path d="M861.65 938.26L832.906 993.799L852.792 1032.49L861.65 1025.87L853.912 1068.97L887.067 1099.92H903.083L941.227 1033.61V938.26H861.65Z" fill="#FFFFFB"/>
<path d="M570.384 1482.98L712.98 1546.83V1575H520.635V1482.98H570.384Z" fill="#FFFFFB"/>
<path d="M470.885 1482.98L328.289 1546.83V1575H520.635V1482.98H470.885Z" fill="#FFFFFB"/>
<path d="M316.684 874.406L470.885 1482.98H520.635V897.619L316.684 874.406Z" fill="#FFFFFB"/>
<path d="M319.612 886.012L412.856 901.777L326.771 914.215L319.612 886.012Z" fill="#03031F"/>
<path d="M724.586 874.406L570.384 1482.98H520.635V897.619L724.586 874.406Z" fill="#FFFFFB"/>
<path d="M724.586 883.264L657.012 891.291L674.438 900.114L718.656 897.8L724.586 883.264Z" fill="#03031F"/>
<path d="M520.743 212.536H614.494L615.578 198.507L520.743 197.06V212.536Z" fill="#EACA40"/>
<path d="M384.655 212.536H478.406L479.49 198.507L384.655 197.06V212.536Z" fill="#EACA40"/>
<path d="M455.555 263.989L422.799 270.425L405.408 300.689V313.525H424.064L428.62 296.133L432.091 295.699L430.464 315.477H472.982V304.413L482.491 315.477H506.137L511.234 304.413L512.898 315.477H542.617L544.678 306.076L531.409 289.733L548.836 301.918V317.285H566.226L579.098 301.52L561.671 272.486L529.348 267.785L518.574 267.532L514.018 297.362L495.76 301.918L472.548 296.531L470.488 263.989H455.555Z" fill="#EACA40"/>
<path d="M473.922 223.564L474.212 291.577L495.76 296.964L513.585 292.409V265.435L518.574 267.532L520.743 300.689L495.76 304.413L466.764 297.796V225.227L473.922 223.564Z" fill="#03031F"/>
<path d="M471.753 949.867L557.947 925.822L534.446 962.305L519.839 1178.71L514.85 975.575L471.753 949.867Z" fill="#03031F"/>
<path d="M505.702 1575L520.634 1490.17V1311.63L527.251 1497.33L554.331 1575H505.702Z" fill="#03031F"/>
</g>
<defs>
<clipPath id="clip0_661_549">
<rect width="1028" height="1575" fill="white"/>
</clipPath>
</defs>
</svg>
