<svg width="21" height="16" viewBox="0 0 21 16" fill="none" xmlns="http://www.w3.org/2000/svg">
<path fill-rule="evenodd" clip-rule="evenodd" d="M10.443 0C12.1478 0 13.4236 1.122 13.9008 2.7127C14.2254 3.7946 14.4726 4.9013 14.7343 6H20.886L17.136 16H3.75L0 6H6.1516C6.4133 4.9013 6.6606 3.7946 6.9851 2.7127C7.4623 1.122 8.7381 0 10.443 0ZM12.6778 6H8.2081C8.4374 5.0468 8.738 3.8299 8.9008 3.2873C9.1271 2.533 9.6172 2 10.443 2C11.2688 2 11.7588 2.533 11.9851 3.2873C12.1479 3.8299 12.4485 5.0468 12.6778 6ZM2.886 8L5.136 14H15.75L18 8H14.6748C14.0115 10.1065 12.9083 12 10.443 12C7.9776 12 6.8744 10.1065 6.2111 8H2.886ZM8.3168 8C8.6803 9.0612 9.2009 10 10.443 10C11.685 10 12.2056 9.0612 12.5691 8H8.3168Z" fill="#111111"/>
</svg>
