<svg width="1399" height="2120" viewBox="0 0 1399 2120" fill="none" xmlns="http://www.w3.org/2000/svg">
<path d="M1357.49 696.525L1323.82 753.471L1256.46 856.306L953.578 881.27L855.693 889.346L755.26 897.617L685.928 868.852L521.498 613.038L426.421 489.558L406.615 388.861L573.011 268.707L939.496 378.97L1339.67 539.076L1357.49 696.525Z" fill="#FFFFFB"/>
<path d="M953.578 881.27L855.693 889.346L782.345 812.079L795.541 807.458L953.578 881.27Z" fill="#03031F"/>
<path d="M1105.24 247.587L1120.43 290.474L1202.98 322.197L1210.23 380.957L1000.25 474.701L932.562 398.773L1024.01 318.224L1013.45 232.405L1105.24 247.587Z" fill="#FFFFFB"/>
<path d="M407.674 394.259L317.953 331.094L407.674 124.625L573.011 268.706L407.674 394.259Z" fill="#FFFFFB"/>
<path d="M227.325 166.216L251.084 342.993L317.953 331.094L407.673 124.625L395.211 106.787L277.844 117.196L227.325 166.216Z" fill="#FFFFFB"/>
<path d="M0 216.727L8.92023 316.258L92.1181 366.747L251.084 342.993L227.325 166.216L167.152 187.509L122.162 206.318L0 216.727Z" fill="#FFFFFB"/>
<path d="M11.7275 232.405L37.4732 277.301L116.049 273.997L55.292 266.482L25.5939 232.405H11.7275Z" fill="#03031F"/>
<path d="M527.438 604.443L344.692 595.524L317.953 726.26L476.94 859.955L690.874 882.716L723.575 856.327L527.438 604.443Z" fill="#FFFFFB"/>
<path d="M183.415 505.732L37.4736 595.524V669.465L203.221 687.951L317.953 726.26L344.692 595.524L310.847 550.628L183.415 505.732Z" fill="#FFFFFB"/>
<path d="M224.345 517.61L233.589 501.219L263.978 517.61V726.26H233.589L258.017 711.058L251.084 559.871L238.211 711.058L203.545 704.471L191.083 686.612L211.472 692.572L238.211 525.211L224.345 517.61Z" fill="#0707D9"/>
<path d="M124.646 1724.51L215.446 981.75L203.545 704.471L227.52 711.057V1044.16L136.741 1724.51H124.646Z" fill="#0707D9"/>
<path d="M352.122 1792.86L335.772 1601.22L216.915 1057.53L222.855 1035.24L352.122 1608.65V1792.86Z" fill="#0707D9"/>
<path d="M176.093 1667.07L310.847 1699.44L303.589 1953.61L137.842 1972.1L176.093 1667.07Z" fill="#0707D9"/>
<path d="M213.783 1949.66L216.914 2037.46L205.208 2111.4L176.093 2117.34L145.769 2095.55L137.842 1972.1L213.783 1949.66Z" fill="#0707D9"/>
<path d="M227.52 1952.29V2030.86L230.954 2095.55L253.395 2119.98L277.175 2103.48C277.175 2103.48 300.955 2038.11 300.955 2033.49C300.955 2028.87 303.59 1953.61 303.59 1953.61L227.52 1952.29Z" fill="#0707D9"/>
<path d="M176.093 1667.07L137.842 1674.35L106.157 1742.35L88.3164 1816.29L101.535 1849.96H119.354L132.205 1826.2L129.267 1792.86L166.395 1744.33L176.093 1667.07Z" fill="#0707D9"/>
<path d="M292.77 1695.1H310.848L349.79 1765.39L382.836 1842.7L375.578 1886.28L355.751 1900.79L337.803 1881.66V1840.71L303.59 1807.05L292.77 1695.1Z" fill="#0707D9"/>
<path d="M195.964 1676.31L184.085 1643.96L190.025 1602.37L212.465 1560.78L277.175 1566.39L298.968 1624.83C298.968 1624.83 293.849 1676.33 292.769 1676.33C291.689 1676.33 259.334 1695.1 259.334 1695.1L195.943 1676.33L195.964 1676.31Z" fill="#0707D9"/>
<path d="M222.617 1612.69L226.57 1630.27H231.278L234 1626.79L230.047 1610.47L222.617 1612.69Z" fill="#FFFFFB"/>
<path d="M259.421 1609.8L255.058 1626.64L258.189 1629.6L265.123 1628.37V1616.73L259.421 1609.8Z" fill="#FFFFFB"/>
<path d="M590.83 10.5599L596.986 277.301L681.523 307.577L769.429 175.092L760.552 36.3227L712.992 0L590.83 10.5599Z" fill="#FFFFFB"/>
<path d="M396.032 115.533L590.83 10.5601L650.269 39.6053L670.075 174.293L654.891 224.89L525.473 277.301L473.29 188.827L396.032 115.533Z" fill="#FFFFFB"/>
<path d="M372.273 124.625L339.249 149.869C339.249 149.869 305.577 198.069 299.637 199.386C293.698 200.704 233.61 259.442 233.61 259.442L291.905 335.737L410.589 349.925L541.347 266.482L523.528 189.474L450.223 124.603H372.295L372.273 124.625Z" fill="#FFFFFB"/>
<path d="M590.83 250.825L639.038 232.405L666.771 217.871L685.259 166.216L672.71 224.89L629.146 250.825V268.706L649.6 281.922L596.986 277.301L590.83 250.825Z" fill="#03031F"/>
<path d="M396.032 101.021L354.865 137.927L337.932 176.28L257.369 240.482L238.211 268.706L266.721 302.805L293.028 342.993L392.727 338.696L304.259 326.819L263.978 272.01L270.566 250.221L351.128 184.205L372.273 143.931L415.319 105.146L396.032 101.021Z" fill="#03031F"/>
<path d="M438.97 326.818L510.267 277.301L502.642 291.165L438.97 326.818Z" fill="#03031F"/>
<path d="M291.214 266.482L334.303 277.301L351.128 271.881H328.839L291.214 266.482Z" fill="#03031F"/>
<path d="M1051.42 376.659L1171.27 458.85L1188.12 545.014L1157.4 595.524L1188.12 608.395L1339.65 583.172V450.946L1202.98 322.197L1051.42 376.659Z" fill="#FFFFFB"/>
<path d="M1092.61 367.741L1051.42 376.659L1024.01 426.781L1011.57 484.397L1159.15 615.997L1245.05 501.219L1092.61 367.741Z" fill="#FFFFFB"/>
<path d="M1024.01 465.285L872.151 615.996L867.961 661.216L910.769 704.471L1019.39 718.983L1159.63 606.149L1024.01 465.285Z" fill="#FFFFFB"/>
<path d="M1039.86 384.909L1006.19 455.567L847.054 611.375L875.434 682.012L943.47 711.057L1009.5 718.983L1195.55 558.554L1200.99 484.613L1162.7 417.258L1059.69 373.679L1039.86 384.909Z" fill="#FFFFFB"/>
<path d="M1245.05 501.219L1140.9 616.644L1019.41 711.058L1164.03 612.692L1195.57 614.679C1195.57 614.679 1271.01 582.697 1268.38 583.172C1265.74 583.647 1191.12 586.951 1191.12 586.951L1245.09 501.241L1245.05 501.219Z" fill="#03031F"/>
<path d="M1000.25 474.7C996.3 475.37 954.031 532.143 954.031 532.143L843.749 616.644L872.151 673.784L902.519 694.537L884.7 670.653L872.151 615.975L957.336 537.412L1016.11 479.969L1030.64 413.284L1000.27 474.679L1000.25 474.7Z" fill="#03031F"/>
<path d="M1043.49 388.537L1061.83 373.679L1143.91 357.85L1183.67 383.095L1143.91 345.455L1063.32 367.741L1043.49 388.537Z" fill="#03031F"/>
<path d="M892.95 621.265L895.909 643.4L932.562 661.216L1005.2 606.149L991.008 592.89L928.61 640.096L892.95 621.265Z" fill="#03031F"/>
<path d="M904.831 381.605L954.356 404.387L1043.49 358.844V286.544L994.961 149.351L899.885 76.5757L807.767 85.4944L778.047 159.781L834.506 342.993L904.831 381.605Z" fill="#FFFFFB"/>
<path d="M666.77 321.203C666.101 317.251 786.772 137.927 786.772 137.927L894.916 154.836L932.563 266.503L900.856 388.558L856.276 443.021L781.999 342.993L666.77 321.203Z" fill="#FFFFFB"/>
<path d="M765.692 116.699L652.904 353.553L633.768 367.741L666.77 349.925L771.199 161.142L765.692 116.699Z" fill="#03031F"/>
<path d="M931.57 263.545C931.073 272.226 921.159 338.026 921.159 338.026L882.044 408.015L910.77 380.287L936.192 408.015L983.082 394.259H957.985C957.985 394.259 932.887 364.437 935.544 364.437C938.2 364.437 979.13 326.797 979.13 326.797L946.105 335.759L931.57 263.523V263.545Z" fill="#03031F"/>
<path d="M676.015 318.223L633.768 382.274L578.626 445.655L555.84 462.154L547.913 489.817L564.76 543.027L617.914 553.932L702.473 550.628L764.18 521.259L834.591 456.301L882.043 408.015V356.533L792.906 293.799L676.015 318.223Z" fill="#FFFFFB"/>
<path d="M568.302 440.041L543.615 459.346L545.775 501.219L561.132 544.02L613.616 552.442L568.302 540.565L555.171 470.749L596.877 444.36L568.302 440.041Z" fill="#03031F"/>
<path d="M764.85 513.226L799.667 490.055L842.432 448.463L791.913 498.974L755.368 531.15L764.85 513.226Z" fill="#03031F"/>
<path d="M592.817 469.755L626.49 474.701L651.76 479.171L664.633 465.285L647.786 473.599L626.49 469.259L592.817 469.755Z" fill="#03031F"/>
<path d="M568.303 440.041L579.944 394.259H723.575L771.2 501.219L747.334 546.331L727.528 552.939L759.234 501.219L723.575 413.306H590.83L582.925 426.781L680.14 440.041L719.601 519.273L685.259 552.939H666.771L691.868 523.224L666.771 454.898L568.303 440.041Z" fill="#0707D9"/>
<path d="M667.31 552.313L685.108 882.716L543.615 1315.18H570.376L711.674 891.635L745.368 537.088L727.527 552.939L706.058 817.37L685.194 552.032L667.31 552.313Z" fill="#0707D9"/>
<path d="M698.305 917.873L798.846 1351.65L816.665 1360.57L698.305 917.873Z" fill="#0707D9"/>
<path d="M735.994 1362.49L739.904 1362.56H777.053L818.155 1338.28L839.452 1349.66V1365.02L809.732 1395.73L764.18 1431.38L770.12 1514.07L616.597 1515.56L607.677 1435.33L612.126 1389.79L538.842 1335.3L536.358 1307.58L567.072 1302.26L606.187 1334.81L659.924 1355.26L735.994 1362.49Z" fill="#0707D9"/>
<path d="M697.16 1513.25V1576.95L666.771 1579.59L626.166 1549.89L616.598 1515.56L697.16 1513.25Z" fill="#0707D9"/>
<path d="M770.12 1514.07L770.509 1554.84L753.619 1566.39L697.16 1538.66L696.923 1514.78L770.12 1514.07Z" fill="#0707D9"/>
<path d="M672.062 1363.79L652.753 1337.29C652.753 1337.29 652.019 1287.77 652.753 1287.04C653.487 1286.3 693.618 1261.54 693.618 1261.54L744.137 1276.89L756.275 1315.18L758.997 1349.66L731.998 1369.23L672.062 1363.79Z" fill="#0707D9"/>
<path d="M681.501 1319.99V1306.11L692.063 1289.29L700.313 1290.93L695.367 1309.09L681.501 1319.99Z" fill="#FFFFFB"/>
<path d="M710.205 1311.72L719.277 1320.12L730.162 1313.19L722.581 1292.39L711.674 1302.26L710.205 1311.72Z" fill="#FFFFFB"/>
<path d="M921.181 923.833L1024.01 905.996L1011.81 1124.36L1161.88 1238.75L1195.55 1222.41L1291.12 925.302L1387.71 739.131L1357.49 454.402L1398.1 443.021V1229.83L1273.3 1258.06L1210.23 1301.14L985.069 1148.14L921.181 923.833Z" fill="#0707D9"/>
<path d="M481.908 602.219L543.961 665.514L589.512 739.131L551.218 643.724L514.393 603.795L481.908 602.219Z" fill="#03031F"/>
<path d="M980.446 413.306L1016.11 466.775L1024.01 440.041L1011.48 437.061L980.446 413.306Z" fill="#03031F"/>
<path d="M1167.81 646.532H1220.3L1268.42 626.232L1221.29 640.096L1167.81 646.532Z" fill="#03031F"/>
</svg>
