<svg width="1271" height="1606" viewBox="0 0 1271 1606" fill="none" xmlns="http://www.w3.org/2000/svg">
<g clip-path="url(#clip0_970_2)">
<path d="M630.722 294.38V433.418H303.736L301.608 406.872L293.697 308.196L379.75 155.303H550.411L630.722 294.38Z" fill="#FFFFF9"/>
<path d="M101.915 451.852L0 824.145V1142.5L50.9573 1267.76L92.0764 1223.55L73.6451 1026.48L134.44 766.594L101.915 451.852Z" fill="#FFFFF9"/>
<path d="M822.544 433.418L768.535 907.358L149.779 914.748L101.874 451.852L249.566 406.872L660.878 392.092L672.162 391.691L685.734 395.466L822.544 433.418Z" fill="#FFFFF9"/>
<path d="M270.366 412.253L420.788 575.227L417.094 603.781L341.923 497.877L270.366 412.253Z" fill="#03031F"/>
<path d="M685.734 395.466L672.162 412.735L655.899 433.418L531.738 591.371L565.348 693.099H542.339L526.679 590.648L632.93 433.418L660.878 392.092L672.162 375.385V391.691L685.734 395.466Z" fill="#03031F"/>
<path d="M762.391 482.214L679.51 537.475L685.051 564.182L762.391 500.648V482.214Z" fill="#03031F"/>
<path d="M200.736 513.539L297.39 550.367L276.229 653.219L405.128 635.107L371.999 759.405L357.262 859.808L379.348 653.219L260.568 667.316L276.229 564.182L200.736 513.539Z" fill="#03031F"/>
<path d="M592.052 642.014L663.408 665.027L688.746 580.769L682.683 552.696L661.119 642.456L595.264 631.854L592.052 642.014Z" fill="#03031F"/>
<path d="M275.306 909.768L530.333 910.21L367.061 927.921L275.306 909.768Z" fill="#03031F"/>
<path d="M907.874 762.779V817.116L883.299 725.63L850.171 718.28L888.319 698.963L906.027 770.449L907.874 762.779Z" fill="#03031F"/>
<path d="M763.997 1412.02L718.18 1482.02L763.636 1453.75L763.997 1412.02Z" fill="#03031F"/>
<path d="M120.306 446.229L180.459 438.318V451.852L249.566 406.872L120.306 446.229Z" fill="#03031F"/>
<path d="M722.919 261.167L716.855 303.296L630.722 306.429L294.54 318.598L222.542 321.208L184.916 261.167L214.43 263.296L303.134 244.34L303.455 243.657L317.108 212.572L388.343 50.5226L551.053 0L614.78 222.332L619.84 239.962L620.201 241.167L704.648 278.035L722.919 261.167Z" fill="#F4C916"/>
<path d="M386.175 236.268L331.443 241.167H331.403L303.455 243.657L317.108 212.573L342.607 221.328L386.175 236.268Z" fill="#03031F"/>
<path d="M619.84 239.962L595.907 234.099L582.214 230.765L592.453 228.115L614.78 222.332L619.84 239.962Z" fill="#03031F"/>
<path d="M1128.25 465.948L1115.96 495.748L1050.99 555.949L1020.83 550.046L1030.95 567.877L992.281 750.208L924.458 880.973H883.941C883.941 880.973 782.268 786.795 784.998 762.939C787.689 739.084 822.544 433.418 822.544 433.418L888.318 698.963L906.027 770.449L907.874 762.779L972.323 494.182L1020.83 450.607L1009.15 433.418L1082.19 395.345L1115.96 415.627L1128.25 465.948Z" fill="#FFFFF9"/>
<path d="M1152.3 328.156L1090.98 406.148L1105.16 423.739L1158.48 349.441L1152.3 328.156Z" fill="#F4C916"/>
<path d="M1194.9 321.208L1139.81 273.416L1167.36 205.865L1224.38 180.082L1198.6 142.009L1224.38 89.2378H1235.78L1218.24 132.813L1271 182.532L1235.78 257.432L1262.41 302.895L1194.9 321.208Z" fill="#F4C916"/>
<path d="M149.78 914.748L170.661 1302.74L187.847 1525L117.856 1606H347.425V1216.8L367.061 906.154L149.78 914.748Z" fill="#FFFFF9"/>
<path d="M536.477 910.13L633.492 1593.75H899.883L763.636 1453.75L768.535 907.358L536.477 910.13Z" fill="#FFFFF9"/>
<path d="M776.526 1535.44L749.742 1462.38L776.526 1488.13L788.773 1511.46L817.003 1442.1L845.272 1430.46L851.416 1450.09L806.602 1510.86L776.526 1535.44Z" fill="#F4C916"/>
<path d="M161.586 1552.51C158.815 1548.61 131.67 1492.91 131.67 1492.91L139.5 1457.93L170.821 1493.39L187.084 1515.04L231.577 1478.17L270.367 1487.85L203.026 1552.51L179.093 1541.7L161.586 1552.51Z" fill="#F4C916"/>
<path d="M386.175 316.67H418.62L438.297 362.213L470.822 385.546L497.807 383.096L530.975 351.128L502.104 391.691L469.618 398.96L426.611 389.201L386.175 316.67Z" fill="#03031F"/>
</g>
<defs>
<clipPath id="clip0_970_2">
<rect width="1271" height="1606" fill="white"/>
</clipPath>
</defs>
</svg>
