<svg width="761" height="306" viewBox="0 0 761 306" fill="none" xmlns="http://www.w3.org/2000/svg">
<g opacity="0.6">
<rect x="10.2858" y="80.244" width="722.344" height="216.344" rx="28.2539" transform="rotate(-5.55774 10.2858 80.244)" stroke="white" style="mix-blend-mode:overlay" stroke-width="18.836"/>
<path d="M58.3035 163.24L56.7913 147.7L117.089 141.832L118.601 157.373L96.8442 159.49L102.792 220.617L86.0083 222.25L80.0603 161.123L58.3035 163.24ZM185.348 144.917C193.037 151.559 197.452 160.752 198.595 172.493C199.737 184.235 197.145 194.144 190.82 202.22C184.556 210.22 175.864 214.761 164.744 215.843C153.693 216.919 144.323 214.135 136.635 207.493C129.015 200.843 124.634 191.648 123.492 179.906C122.349 168.164 124.91 158.293 131.173 150.293C137.43 142.224 146.084 137.651 157.135 136.576C168.255 135.494 177.66 138.274 185.348 144.917ZM180.878 174.217C180.166 166.896 177.847 161.335 173.921 157.533C169.995 153.732 164.959 152.13 158.812 152.728C152.595 153.333 147.927 155.879 144.808 160.366C141.689 164.853 140.485 170.757 141.198 178.078C141.91 185.4 144.233 190.996 148.165 194.866C152.091 198.668 157.162 200.266 163.378 199.661C169.526 199.063 174.155 196.486 177.268 191.93C180.381 187.374 181.584 181.47 180.878 174.217ZM242.63 181.282L228.333 182.673L230.813 208.159L214.029 209.793L206.569 133.126L237.65 130.101C245.455 129.342 251.969 131.078 257.192 135.311C262.484 139.538 265.502 145.484 266.248 153.151C266.995 160.818 265.179 167.235 260.801 172.402C256.492 177.562 250.435 180.522 242.63 181.282ZM235.372 145.383L224.804 146.411L226.881 167.754L237.449 166.726C245.53 165.939 249.224 161.989 248.532 154.875C247.84 147.761 243.453 144.597 235.372 145.383ZM299.695 146.55C299.023 139.643 301.097 133.724 305.916 128.792C310.797 123.785 317.348 120.882 325.567 120.082C333.786 119.282 340.522 120.788 345.773 124.6C351.018 128.343 353.993 133.84 354.699 141.093L338.019 142.716C337.757 140.022 336.619 138.006 334.606 136.668C332.587 135.261 329.989 134.712 326.811 135.021C323.358 135.357 320.7 136.348 318.838 137.993C316.976 139.639 316.17 141.739 316.419 144.295C316.64 146.574 317.437 148.309 318.808 149.501C320.172 150.623 322.228 151.329 324.975 151.62L336.707 152.884C343.749 153.593 349.06 155.516 352.643 158.654C356.294 161.785 358.412 166.355 358.997 172.364C359.716 179.754 357.635 185.953 352.753 190.96C347.865 195.898 341.001 198.797 332.16 199.657C323.595 200.491 316.549 199.015 311.021 195.23C305.493 191.445 302.38 185.961 301.681 178.778L318.361 177.155C318.637 179.987 319.85 182.065 322.001 183.389C324.145 184.645 327.082 185.091 330.812 184.728C334.61 184.359 337.548 183.376 339.623 181.779C341.693 180.114 342.609 178.072 342.374 175.655C342.166 173.514 341.452 171.91 340.233 170.843C339.082 169.77 337.206 169.116 334.603 168.881L322.664 167.637C308.575 166.149 300.918 159.12 299.695 146.55ZM421.063 189.647L372.369 194.385L364.909 117.718L413.603 112.98L415.115 128.52L383.205 131.625L384.667 146.648L412.951 143.896L414.383 158.608L386.099 161.36L387.641 177.211L419.551 174.106L421.063 189.647ZM468.069 186.328C456.604 187.444 447.144 184.808 439.69 178.422C432.298 171.96 428.01 162.65 426.827 150.494C425.664 138.545 428.218 128.605 434.489 120.674C440.759 112.743 449.627 108.219 461.092 107.104C470.693 106.17 478.919 107.949 485.771 112.442C492.692 116.928 497.156 123.396 499.164 131.846L481.447 133.57C479.897 129.817 477.467 127.055 474.157 125.285C470.847 123.516 466.878 122.856 462.251 123.306C456.034 123.911 451.332 126.46 448.144 130.954C445.024 135.441 443.821 141.345 444.533 148.667C445.232 155.85 447.583 161.373 451.584 165.237C455.586 169.101 460.66 170.734 466.807 170.135C471.504 169.678 475.371 168.221 478.409 165.764C481.51 163.232 483.393 160.015 484.059 156.116L501.465 154.422C500.917 163.121 497.614 170.38 491.557 176.199C485.499 182.017 477.67 185.394 468.069 186.328ZM532.115 178.841L515.331 180.474L507.871 103.807L537.502 100.924C546.826 100.016 554.221 101.493 559.686 105.354C565.214 109.139 568.365 115.003 569.138 122.946C570.099 132.823 566.543 140.35 558.471 145.528L574.903 174.677L556.565 176.462L542.454 150.747L529.504 152.007L532.115 178.841ZM526.106 117.093L528.072 137.296L540.816 136.056C544.476 135.699 547.221 134.526 549.049 132.535C550.946 130.538 551.737 127.916 551.421 124.67C551.105 121.423 549.865 119.069 547.701 117.606C545.599 116.068 542.683 115.48 538.953 115.843L526.106 117.093ZM635.354 168.795L586.66 173.533L579.2 96.8662L627.894 92.128L629.406 107.669L597.496 110.774L598.958 125.796L627.242 123.044L628.673 137.756L600.389 140.508L601.932 156.359L633.842 153.254L635.354 168.795ZM637.232 106.907L635.72 91.3664L696.018 85.4991L697.53 101.04L675.773 103.157L681.721 164.283L664.937 165.916L658.989 104.79L637.232 106.907Z" fill="white" style="mix-blend-mode:overlay"/>
</g>
</svg>
